M48
; DRILL file {KiCad 9.0.1+1} date 2025-05-03T16:11:17-0400
; FORMAT={-:-/ absolute / inch / decimal}
; #@! TF.CreationDate,2025-05-03T16:11:17-04:00
; #@! TF.GenerationSoftware,Kicad,Pcbnew,9.0.1+1
; #@! TF.FileFunction,Plated,1,4,PTH
FMAT,2
INCH
; #@! TA.AperFunction,Plated,PTH,ComponentDrill
T1C0.0079
; #@! TA.AperFunction,Plated,PTH,ViaDrill
T2C0.0157
; #@! TA.AperFunction,Plated,PTH,ComponentDrill
T3C0.0374
; #@! TA.AperFunction,Plated,PTH,ComponentDrill
T4C0.0394
%
G90
G05
T1
X1.94Y-2.3105
X1.94Y-2.34
X1.94Y-2.3695
T2
X1.6Y-3.02
X1.64Y-2.48
X1.7Y-2.8
X1.72Y-2.74
X1.76Y-2.46
X1.8Y-2.3
X1.8Y-2.36
X1.84Y-2.4
X1.84Y-2.62
X1.96Y-2.44
X2.02Y-2.18
X2.02Y-2.44
X2.04Y-2.64
X2.08Y-2.98
X2.08Y-3.02
X2.08Y-3.1
X2.1Y-2.66
X2.12Y-3.1
X2.16Y-2.36
X2.2Y-2.75
X2.3Y-2.52
X2.3Y-2.96
X2.3Y-3.08
T3
X1.6616Y-2.9
X1.76Y-2.9
X1.8584Y-2.9
T4
X1.4499Y-1.3663
X1.4499Y-1.4663
X1.4499Y-1.5663
X1.4499Y-1.6663
X1.4499Y-1.7663
X1.4499Y-1.8663
X1.4499Y-1.9663
X1.4499Y-2.0663
X1.4499Y-2.1663
X1.4499Y-2.2663
X1.4499Y-2.3663
X1.4499Y-2.4663
X1.4499Y-2.5663
X1.4499Y-2.6663
X1.4499Y-2.7663
X1.4499Y-2.8663
X1.4499Y-2.9663
X1.4499Y-3.0663
X1.4499Y-3.1663
X2.45Y-1.3663
X2.45Y-1.4663
X2.45Y-1.5663
X2.45Y-1.6663
X2.45Y-1.7663
X2.45Y-1.8663
X2.45Y-1.9663
X2.45Y-2.0663
X2.45Y-2.1663
X2.45Y-2.2663
X2.45Y-2.3663
X2.45Y-2.4663
X2.45Y-2.5663
X2.45Y-2.6663
X2.45Y-2.7663
X2.45Y-2.8663
X2.45Y-2.9663
X2.45Y-3.0663
X2.45Y-3.1663
M30
