%TF.GenerationSoftware,KiCad,Pcbnew,9.0.1+1*%
%TF.CreationDate,2025-05-03T16:11:17-04:00*%
%TF.ProjectId,lg_hvac_esp32,6c675f68-7661-4635-9f65-737033322e6b,rev?*%
%TF.SameCoordinates,Original*%
%TF.FileFunction,Soldermask,Top*%
%TF.FilePolarity,Negative*%
%FSLAX46Y46*%
G04 Gerber Fmt 4.6, Leading zero omitted, Abs format (unit mm)*
G04 Created by KiCad (PCBNEW 9.0.1+1) date 2025-05-03 16:11:17*
%MOMM*%
%LPD*%
G01*
G04 APERTURE LIST*
G04 Aperture macros list*
%AMRoundRect*
0 Rectangle with rounded corners*
0 $1 Rounding radius*
0 $2 $3 $4 $5 $6 $7 $8 $9 X,Y pos of 4 corners*
0 Add a 4 corners polygon primitive as box body*
4,1,4,$2,$3,$4,$5,$6,$7,$8,$9,$2,$3,0*
0 Add four circle primitives for the rounded corners*
1,1,$1+$1,$2,$3*
1,1,$1+$1,$4,$5*
1,1,$1+$1,$6,$7*
1,1,$1+$1,$8,$9*
0 Add four rect primitives between the rounded corners*
20,1,$1+$1,$2,$3,$4,$5,0*
20,1,$1+$1,$4,$5,$6,$7,0*
20,1,$1+$1,$6,$7,$8,$9,0*
20,1,$1+$1,$8,$9,$2,$3,0*%
G04 Aperture macros list end*
%ADD10O,1.800000X2.050000*%
%ADD11RoundRect,0.264706X-0.635294X-0.760294X0.635294X-0.760294X0.635294X0.760294X-0.635294X0.760294X0*%
%ADD12RoundRect,0.150000X-0.212500X-0.150000X0.212500X-0.150000X0.212500X0.150000X-0.212500X0.150000X0*%
%ADD13RoundRect,0.050000X-0.550000X-0.950000X0.550000X-0.950000X0.550000X0.950000X-0.550000X0.950000X0*%
%ADD14RoundRect,0.274390X-0.475610X0.288110X-0.475610X-0.288110X0.475610X-0.288110X0.475610X0.288110X0*%
%ADD15RoundRect,0.165000X0.195000X-0.165000X0.195000X0.165000X-0.195000X0.165000X-0.195000X-0.165000X0*%
%ADD16RoundRect,0.137500X0.212500X0.137500X-0.212500X0.137500X-0.212500X-0.137500X0.212500X-0.137500X0*%
%ADD17RoundRect,0.175000X0.850000X0.175000X-0.850000X0.175000X-0.850000X-0.175000X0.850000X-0.175000X0*%
%ADD18RoundRect,0.137500X-0.212500X-0.137500X0.212500X-0.137500X0.212500X0.137500X-0.212500X0.137500X0*%
%ADD19RoundRect,0.050000X-0.850000X-0.850000X0.850000X-0.850000X0.850000X0.850000X-0.850000X0.850000X0*%
%ADD20C,1.800000*%
%ADD21RoundRect,0.274390X0.288110X0.475610X-0.288110X0.475610X-0.288110X-0.475610X0.288110X-0.475610X0*%
%ADD22RoundRect,0.271739X-0.353261X-1.128261X0.353261X-1.128261X0.353261X1.128261X-0.353261X1.128261X0*%
G04 APERTURE END LIST*
D10*
%TO.C,J1*%
X47204000Y-73660000D03*
X44704000Y-73660000D03*
D11*
X42204000Y-73660000D03*
%TD*%
D12*
%TO.C,U1*%
X48213500Y-58461000D03*
X48213500Y-59111000D03*
X48213500Y-59761000D03*
X48213500Y-60411000D03*
X50338500Y-60411000D03*
X50338500Y-59761000D03*
X50338500Y-59111000D03*
X50338500Y-58461000D03*
D13*
X49276000Y-59436000D03*
%TD*%
D14*
%TO.C,R3*%
X56896000Y-62183000D03*
X56896000Y-64008000D03*
%TD*%
D15*
%TO.C,C5*%
X43180000Y-63472000D03*
X43180000Y-62512000D03*
%TD*%
D16*
%TO.C,D1*%
X53374000Y-80264000D03*
X51274000Y-80264000D03*
%TD*%
D17*
%TO.C,U2*%
X50192000Y-67818000D03*
X50192000Y-66548000D03*
X50192000Y-65278000D03*
X50192000Y-64008000D03*
X45242000Y-64008000D03*
X45242000Y-65278000D03*
X45242000Y-66548000D03*
X45242000Y-67818000D03*
%TD*%
D14*
%TO.C,R2*%
X53340000Y-60555500D03*
X53340000Y-62380500D03*
%TD*%
D18*
%TO.C,D2*%
X40606000Y-67564000D03*
X42706000Y-67564000D03*
%TD*%
D19*
%TO.C,J2*%
X36826320Y-34703840D03*
D20*
X36826320Y-37243840D03*
X36826320Y-39783840D03*
X36826320Y-42323840D03*
X36826320Y-44863840D03*
X36826320Y-47403840D03*
X36826320Y-49943840D03*
X36826320Y-52483840D03*
X36826320Y-55023840D03*
X36826320Y-57563840D03*
X36826320Y-60103840D03*
X36826320Y-62643840D03*
X36826320Y-65183840D03*
X36826320Y-67723840D03*
X36826320Y-70263840D03*
X36826320Y-72803840D03*
X36826320Y-75343840D03*
X36826320Y-77883840D03*
X36826320Y-80423840D03*
%TD*%
D21*
%TO.C,R4*%
X53236500Y-70104000D03*
X51411500Y-70104000D03*
%TD*%
D15*
%TO.C,C2*%
X50292000Y-56360000D03*
X50292000Y-55400000D03*
%TD*%
D14*
%TO.C,R1*%
X53340000Y-64111500D03*
X53340000Y-65936500D03*
%TD*%
D21*
%TO.C,R5*%
X42060500Y-65532000D03*
X40235500Y-65532000D03*
%TD*%
D22*
%TO.C,C1*%
X55525000Y-76708000D03*
X58475000Y-76708000D03*
%TD*%
D19*
%TO.C,J3*%
X62230000Y-34703840D03*
D20*
X62230000Y-37243840D03*
X62230000Y-39783840D03*
X62230000Y-42323840D03*
X62230000Y-44863840D03*
X62230000Y-47403840D03*
X62230000Y-49943840D03*
X62230000Y-52483840D03*
X62230000Y-55023840D03*
X62230000Y-57563840D03*
X62230000Y-60103840D03*
X62230000Y-62643840D03*
X62230000Y-65183840D03*
X62230000Y-67723840D03*
X62230000Y-70263840D03*
X62230000Y-72803840D03*
X62230000Y-75343840D03*
X62230000Y-77883840D03*
X62230000Y-80423840D03*
%TD*%
M02*
