%TF.GenerationSoftware,KiCad,Pcbnew,9.0.1+1*%
%TF.CreationDate,2025-05-03T16:11:17-04:00*%
%TF.ProjectId,lg_hvac_esp32,6c675f68-7661-4635-9f65-737033322e6b,rev?*%
%TF.SameCoordinates,Original*%
%TF.FileFunction,Copper,L1,Top*%
%TF.FilePolarity,Positive*%
%FSLAX46Y46*%
G04 Gerber Fmt 4.6, Leading zero omitted, Abs format (unit mm)*
G04 Created by KiCad (PCBNEW 9.0.1+1) date 2025-05-03 16:11:17*
%MOMM*%
%LPD*%
G01*
G04 APERTURE LIST*
G04 Aperture macros list*
%AMRoundRect*
0 Rectangle with rounded corners*
0 $1 Rounding radius*
0 $2 $3 $4 $5 $6 $7 $8 $9 X,Y pos of 4 corners*
0 Add a 4 corners polygon primitive as box body*
4,1,4,$2,$3,$4,$5,$6,$7,$8,$9,$2,$3,0*
0 Add four circle primitives for the rounded corners*
1,1,$1+$1,$2,$3*
1,1,$1+$1,$4,$5*
1,1,$1+$1,$6,$7*
1,1,$1+$1,$8,$9*
0 Add four rect primitives between the rounded corners*
20,1,$1+$1,$2,$3,$4,$5,0*
20,1,$1+$1,$4,$5,$6,$7,0*
20,1,$1+$1,$6,$7,$8,$9,0*
20,1,$1+$1,$8,$9,$2,$3,0*%
G04 Aperture macros list end*
%TA.AperFunction,ComponentPad*%
%ADD10O,1.700000X1.950000*%
%TD*%
%TA.AperFunction,ComponentPad*%
%ADD11RoundRect,0.250000X-0.600000X-0.725000X0.600000X-0.725000X0.600000X0.725000X-0.600000X0.725000X0*%
%TD*%
%TA.AperFunction,SMDPad,CuDef*%
%ADD12RoundRect,0.125000X-0.187500X-0.125000X0.187500X-0.125000X0.187500X0.125000X-0.187500X0.125000X0*%
%TD*%
%TA.AperFunction,HeatsinkPad*%
%ADD13C,0.500000*%
%TD*%
%TA.AperFunction,HeatsinkPad*%
%ADD14R,1.100000X1.900000*%
%TD*%
%TA.AperFunction,SMDPad,CuDef*%
%ADD15RoundRect,0.250000X-0.450000X0.262500X-0.450000X-0.262500X0.450000X-0.262500X0.450000X0.262500X0*%
%TD*%
%TA.AperFunction,SMDPad,CuDef*%
%ADD16RoundRect,0.140000X0.170000X-0.140000X0.170000X0.140000X-0.170000X0.140000X-0.170000X-0.140000X0*%
%TD*%
%TA.AperFunction,SMDPad,CuDef*%
%ADD17RoundRect,0.112500X0.187500X0.112500X-0.187500X0.112500X-0.187500X-0.112500X0.187500X-0.112500X0*%
%TD*%
%TA.AperFunction,SMDPad,CuDef*%
%ADD18RoundRect,0.150000X0.825000X0.150000X-0.825000X0.150000X-0.825000X-0.150000X0.825000X-0.150000X0*%
%TD*%
%TA.AperFunction,SMDPad,CuDef*%
%ADD19RoundRect,0.112500X-0.187500X-0.112500X0.187500X-0.112500X0.187500X0.112500X-0.187500X0.112500X0*%
%TD*%
%TA.AperFunction,ComponentPad*%
%ADD20R,1.700000X1.700000*%
%TD*%
%TA.AperFunction,ComponentPad*%
%ADD21C,1.700000*%
%TD*%
%TA.AperFunction,SMDPad,CuDef*%
%ADD22RoundRect,0.250000X0.262500X0.450000X-0.262500X0.450000X-0.262500X-0.450000X0.262500X-0.450000X0*%
%TD*%
%TA.AperFunction,SMDPad,CuDef*%
%ADD23RoundRect,0.250000X-0.325000X-1.100000X0.325000X-1.100000X0.325000X1.100000X-0.325000X1.100000X0*%
%TD*%
%TA.AperFunction,ViaPad*%
%ADD24C,0.800000*%
%TD*%
%TA.AperFunction,Conductor*%
%ADD25C,0.400000*%
%TD*%
%TA.AperFunction,Conductor*%
%ADD26C,0.300000*%
%TD*%
G04 APERTURE END LIST*
D10*
%TO.P,J1,3,Pin_3*%
%TO.N,Net-(D1-A)*%
X47204000Y-73660000D03*
%TO.P,J1,2,Pin_2*%
%TO.N,LINBUS*%
X44704000Y-73660000D03*
D11*
%TO.P,J1,1,Pin_1*%
%TO.N,GND*%
X42204000Y-73660000D03*
%TD*%
D12*
%TO.P,U1,1,EN*%
%TO.N,+12V*%
X48213500Y-58461000D03*
%TO.P,U1,2,VIN*%
X48213500Y-59111000D03*
%TO.P,U1,3,GND*%
%TO.N,GND*%
X48213500Y-59761000D03*
%TO.P,U1,4,VOUT*%
%TO.N,+3V3*%
X48213500Y-60411000D03*
%TO.P,U1,5,VOUT*%
X50338500Y-60411000D03*
%TO.P,U1,6,FB*%
%TO.N,Net-(U1-FB)*%
X50338500Y-59761000D03*
%TO.P,U1,7,PG*%
%TO.N,Net-(U1-PG)*%
X50338500Y-59111000D03*
%TO.P,U1,8,SS/TR*%
%TO.N,Net-(U1-SS{slash}TR)*%
X50338500Y-58461000D03*
D13*
%TO.P,U1,9,GND*%
%TO.N,GND*%
X49276000Y-58686000D03*
X49276000Y-59436000D03*
D14*
X49276000Y-59436000D03*
D13*
X49276000Y-60186000D03*
%TD*%
D15*
%TO.P,R3,1*%
%TO.N,Net-(U1-PG)*%
X56896000Y-62183000D03*
%TO.P,R3,2*%
%TO.N,+3V3*%
X56896000Y-64008000D03*
%TD*%
D16*
%TO.P,C5,1*%
%TO.N,LINBUS*%
X43180000Y-63472000D03*
%TO.P,C5,2*%
%TO.N,GND*%
X43180000Y-62512000D03*
%TD*%
D17*
%TO.P,D1,1,K*%
%TO.N,+12V*%
X53374000Y-80264000D03*
%TO.P,D1,2,A*%
%TO.N,Net-(D1-A)*%
X51274000Y-80264000D03*
%TD*%
D18*
%TO.P,U2,1,RXD*%
%TO.N,RXD*%
X50192000Y-67818000D03*
%TO.P,U2,2,~{SLP}*%
%TO.N,+3V3*%
X50192000Y-66548000D03*
%TO.P,U2,3,NC*%
%TO.N,unconnected-(U2-NC-Pad3)*%
X50192000Y-65278000D03*
%TO.P,U2,4,TXD*%
%TO.N,TXD*%
X50192000Y-64008000D03*
%TO.P,U2,5,GND*%
%TO.N,GND*%
X45242000Y-64008000D03*
%TO.P,U2,6,LIN*%
%TO.N,LINBUS*%
X45242000Y-65278000D03*
%TO.P,U2,7,VBAT*%
%TO.N,+12V*%
X45242000Y-66548000D03*
%TO.P,U2,8,NC*%
%TO.N,unconnected-(U2-NC-Pad8)*%
X45242000Y-67818000D03*
%TD*%
D15*
%TO.P,R2,1*%
%TO.N,GND*%
X53340000Y-60555500D03*
%TO.P,R2,2*%
%TO.N,Net-(U1-FB)*%
X53340000Y-62380500D03*
%TD*%
D19*
%TO.P,D2,1,K*%
%TO.N,Net-(D2-K)*%
X40606000Y-67564000D03*
%TO.P,D2,2,A*%
%TO.N,+12V*%
X42706000Y-67564000D03*
%TD*%
D20*
%TO.P,J2,1,Pin_1*%
%TO.N,+3V3*%
X36826320Y-34703840D03*
D21*
%TO.P,J2,2,Pin_2*%
%TO.N,unconnected-(J2-Pin_2-Pad2)*%
X36826320Y-37243840D03*
%TO.P,J2,3,Pin_3*%
%TO.N,unconnected-(J2-Pin_3-Pad3)*%
X36826320Y-39783840D03*
%TO.P,J2,4,Pin_4*%
%TO.N,unconnected-(J2-Pin_4-Pad4)*%
X36826320Y-42323840D03*
%TO.P,J2,5,Pin_5*%
%TO.N,unconnected-(J2-Pin_5-Pad5)*%
X36826320Y-44863840D03*
%TO.P,J2,6,Pin_6*%
%TO.N,unconnected-(J2-Pin_6-Pad6)*%
X36826320Y-47403840D03*
%TO.P,J2,7,Pin_7*%
%TO.N,unconnected-(J2-Pin_7-Pad7)*%
X36826320Y-49943840D03*
%TO.P,J2,8,Pin_8*%
%TO.N,unconnected-(J2-Pin_8-Pad8)*%
X36826320Y-52483840D03*
%TO.P,J2,9,Pin_9*%
%TO.N,TXD*%
X36826320Y-55023840D03*
%TO.P,J2,10,Pin_10*%
%TO.N,RXD*%
X36826320Y-57563840D03*
%TO.P,J2,11,Pin_11*%
%TO.N,unconnected-(J2-Pin_11-Pad11)*%
X36826320Y-60103840D03*
%TO.P,J2,12,Pin_12*%
%TO.N,unconnected-(J2-Pin_12-Pad12)*%
X36826320Y-62643840D03*
%TO.P,J2,13,Pin_13*%
%TO.N,unconnected-(J2-Pin_13-Pad13)*%
X36826320Y-65183840D03*
%TO.P,J2,14,Pin_14*%
%TO.N,GND*%
X36826320Y-67723840D03*
%TO.P,J2,15,Pin_15*%
%TO.N,unconnected-(J2-Pin_15-Pad15)*%
X36826320Y-70263840D03*
%TO.P,J2,16,Pin_16*%
%TO.N,unconnected-(J2-Pin_16-Pad16)*%
X36826320Y-72803840D03*
%TO.P,J2,17,Pin_17*%
%TO.N,unconnected-(J2-Pin_17-Pad17)*%
X36826320Y-75343840D03*
%TO.P,J2,18,Pin_18*%
%TO.N,unconnected-(J2-Pin_18-Pad18)*%
X36826320Y-77883840D03*
%TO.P,J2,19,Pin_19*%
%TO.N,unconnected-(J2-Pin_19-Pad19)*%
X36826320Y-80423840D03*
%TD*%
D22*
%TO.P,R4,1*%
%TO.N,+3V3*%
X53236500Y-70104000D03*
%TO.P,R4,2*%
%TO.N,RXD*%
X51411500Y-70104000D03*
%TD*%
D16*
%TO.P,C2,1*%
%TO.N,Net-(U1-SS{slash}TR)*%
X50292000Y-56360000D03*
%TO.P,C2,2*%
%TO.N,GND*%
X50292000Y-55400000D03*
%TD*%
D15*
%TO.P,R1,1*%
%TO.N,Net-(U1-FB)*%
X53340000Y-64111500D03*
%TO.P,R1,2*%
%TO.N,+3V3*%
X53340000Y-65936500D03*
%TD*%
D22*
%TO.P,R5,1*%
%TO.N,Net-(D2-K)*%
X42060500Y-65532000D03*
%TO.P,R5,2*%
%TO.N,LINBUS*%
X40235500Y-65532000D03*
%TD*%
D23*
%TO.P,C1,1*%
%TO.N,+12V*%
X55525000Y-76708000D03*
%TO.P,C1,2*%
%TO.N,GND*%
X58475000Y-76708000D03*
%TD*%
D20*
%TO.P,J3,1,Pin_1*%
%TO.N,GND*%
X62230000Y-34703840D03*
D21*
%TO.P,J3,2,Pin_2*%
%TO.N,unconnected-(J3-Pin_2-Pad2)*%
X62230000Y-37243840D03*
%TO.P,J3,3,Pin_3*%
%TO.N,unconnected-(J3-Pin_3-Pad3)*%
X62230000Y-39783840D03*
%TO.P,J3,4,Pin_4*%
%TO.N,unconnected-(J3-Pin_4-Pad4)*%
X62230000Y-42323840D03*
%TO.P,J3,5,Pin_5*%
%TO.N,unconnected-(J3-Pin_5-Pad5)*%
X62230000Y-44863840D03*
%TO.P,J3,6,Pin_6*%
%TO.N,unconnected-(J3-Pin_6-Pad6)*%
X62230000Y-47403840D03*
%TO.P,J3,7,Pin_7*%
%TO.N,GND*%
X62230000Y-49943840D03*
%TO.P,J3,8,Pin_8*%
%TO.N,unconnected-(J3-Pin_8-Pad8)*%
X62230000Y-52483840D03*
%TO.P,J3,9,Pin_9*%
%TO.N,unconnected-(J3-Pin_9-Pad9)*%
X62230000Y-55023840D03*
%TO.P,J3,10,Pin_10*%
%TO.N,unconnected-(J3-Pin_10-Pad10)*%
X62230000Y-57563840D03*
%TO.P,J3,11,Pin_11*%
%TO.N,unconnected-(J3-Pin_11-Pad11)*%
X62230000Y-60103840D03*
%TO.P,J3,12,Pin_12*%
%TO.N,unconnected-(J3-Pin_12-Pad12)*%
X62230000Y-62643840D03*
%TO.P,J3,13,Pin_13*%
%TO.N,unconnected-(J3-Pin_13-Pad13)*%
X62230000Y-65183840D03*
%TO.P,J3,14,Pin_14*%
%TO.N,unconnected-(J3-Pin_14-Pad14)*%
X62230000Y-67723840D03*
%TO.P,J3,15,Pin_15*%
%TO.N,unconnected-(J3-Pin_15-Pad15)*%
X62230000Y-70263840D03*
%TO.P,J3,16,Pin_16*%
%TO.N,unconnected-(J3-Pin_16-Pad16)*%
X62230000Y-72803840D03*
%TO.P,J3,17,Pin_17*%
%TO.N,unconnected-(J3-Pin_17-Pad17)*%
X62230000Y-75343840D03*
%TO.P,J3,18,Pin_18*%
%TO.N,unconnected-(J3-Pin_18-Pad18)*%
X62230000Y-77883840D03*
%TO.P,J3,19,Pin_19*%
%TO.N,unconnected-(J3-Pin_19-Pad19)*%
X62230000Y-80423840D03*
%TD*%
D24*
%TO.N,+12V*%
X53848000Y-78740000D03*
X52832000Y-78740000D03*
X52832000Y-75692000D03*
X45720000Y-58420000D03*
X43688000Y-69596000D03*
X45720000Y-59944000D03*
X52832000Y-76708000D03*
X46736000Y-66548000D03*
%TO.N,GND*%
X41656000Y-62992000D03*
X58420000Y-78232000D03*
X46736000Y-60960000D03*
X58420000Y-75184000D03*
X40640000Y-76708000D03*
X44704000Y-62484000D03*
X43180000Y-71120000D03*
X54864000Y-59944000D03*
X51308000Y-55372000D03*
%TO.N,+3V3*%
X51816000Y-67056000D03*
X53340000Y-67564000D03*
X55880000Y-69850000D03*
X49784000Y-61976000D03*
X58420000Y-64008000D03*
X51308000Y-61976000D03*
%TD*%
D25*
%TO.N,GND*%
X43180000Y-72684000D02*
X42204000Y-73660000D01*
X42204000Y-73660000D02*
X42204000Y-75144000D01*
X43180000Y-71120000D02*
X43180000Y-72684000D01*
X42204000Y-75144000D02*
X40640000Y-76708000D01*
%TO.N,+12V*%
X53374000Y-80264000D02*
X53374000Y-79282000D01*
X45720000Y-58420000D02*
X46228000Y-58928000D01*
X47848916Y-59111000D02*
X48226000Y-59111000D01*
X54080000Y-75692000D02*
X52832000Y-75692000D01*
X47759000Y-58928000D02*
X48226000Y-58461000D01*
X46228000Y-58928000D02*
X47759000Y-58928000D01*
X53374000Y-79282000D02*
X52832000Y-78740000D01*
X46228000Y-59436000D02*
X47523916Y-59436000D01*
X45720000Y-59944000D02*
X46228000Y-59436000D01*
X42706000Y-68614000D02*
X42706000Y-67564000D01*
X55096000Y-76708000D02*
X54080000Y-75692000D01*
X55525000Y-76708000D02*
X55096000Y-76708000D01*
X48226000Y-59111000D02*
X48226000Y-58461000D01*
X47523916Y-59436000D02*
X47848916Y-59111000D01*
X45142000Y-66548000D02*
X46736000Y-66548000D01*
X52832000Y-76708000D02*
X55525000Y-76708000D01*
X43688000Y-69596000D02*
X42706000Y-68614000D01*
X53374000Y-79214000D02*
X53848000Y-78740000D01*
X53374000Y-80264000D02*
X53374000Y-79214000D01*
%TO.N,GND*%
X42164000Y-62484000D02*
X43152000Y-62484000D01*
X47905344Y-59761000D02*
X48226000Y-59761000D01*
X58696000Y-76708000D02*
X58696000Y-75460000D01*
X53340000Y-60555500D02*
X54252500Y-60555500D01*
X41656000Y-62992000D02*
X42164000Y-62484000D01*
X58696000Y-76708000D02*
X58696000Y-77956000D01*
X46736000Y-60930344D02*
X47905344Y-59761000D01*
X58696000Y-77956000D02*
X58420000Y-78232000D01*
X45142000Y-64008000D02*
X45142000Y-62922000D01*
X43152000Y-62484000D02*
X43180000Y-62512000D01*
X51280000Y-55400000D02*
X51308000Y-55372000D01*
X58696000Y-75460000D02*
X58420000Y-75184000D01*
X54252500Y-60555500D02*
X54864000Y-59944000D01*
X46736000Y-60960000D02*
X46736000Y-60930344D01*
X50292000Y-55400000D02*
X51280000Y-55400000D01*
X45142000Y-62922000D02*
X44704000Y-62484000D01*
%TO.N,+3V3*%
X55626000Y-70104000D02*
X55880000Y-69850000D01*
X51308000Y-61976000D02*
X50326000Y-60994000D01*
X48226000Y-60926000D02*
X48226000Y-60411000D01*
X51308000Y-66548000D02*
X51816000Y-67056000D01*
X49276000Y-61976000D02*
X49784000Y-61976000D01*
X53340000Y-67564000D02*
X53340000Y-65936500D01*
X53236500Y-70104000D02*
X55626000Y-70104000D01*
X50292000Y-66548000D02*
X51308000Y-66548000D01*
X50326000Y-60994000D02*
X50326000Y-60411000D01*
X56896000Y-64008000D02*
X58420000Y-64008000D01*
X49276000Y-61976000D02*
X48226000Y-60926000D01*
D26*
%TO.N,LINBUS*%
X47385511Y-66181511D02*
X46482000Y-65278000D01*
X40235500Y-65532000D02*
X42295500Y-63472000D01*
X47385511Y-69454489D02*
X47385511Y-66181511D01*
X43180000Y-63880000D02*
X43180000Y-63472000D01*
X44704000Y-73660000D02*
X44704000Y-72136000D01*
X44578000Y-65278000D02*
X43180000Y-63880000D01*
X46482000Y-65278000D02*
X45142000Y-65278000D01*
X45142000Y-65278000D02*
X44578000Y-65278000D01*
X42295500Y-63472000D02*
X43180000Y-63472000D01*
X44704000Y-72136000D02*
X47385511Y-69454489D01*
%TO.N,Net-(U1-SS{slash}TR)*%
X50326000Y-56394000D02*
X50292000Y-56360000D01*
X50326000Y-58461000D02*
X50326000Y-56394000D01*
%TO.N,RXD*%
X50292000Y-68984500D02*
X51411500Y-70104000D01*
X46500000Y-64600000D02*
X46500000Y-63264000D01*
X50292000Y-67818000D02*
X49718000Y-67818000D01*
X49718000Y-67818000D02*
X46500000Y-64600000D01*
X40799840Y-57563840D02*
X36826320Y-57563840D01*
X50292000Y-67818000D02*
X50292000Y-68984500D01*
X46500000Y-63264000D02*
X40799840Y-57563840D01*
%TO.N,TXD*%
X47809006Y-64008000D02*
X38824846Y-55023840D01*
X38824846Y-55023840D02*
X36826320Y-55023840D01*
X50292000Y-64008000D02*
X47809006Y-64008000D01*
%TO.N,Net-(D2-K)*%
X42060500Y-66109500D02*
X40606000Y-67564000D01*
X42060500Y-65532000D02*
X42060500Y-66109500D01*
%TO.N,Net-(U1-FB)*%
X50575945Y-59761000D02*
X51308000Y-60493055D01*
X51308000Y-60493055D02*
X51308000Y-60636532D01*
X51308000Y-60636532D02*
X53051968Y-62380500D01*
X53340000Y-62380500D02*
X53340000Y-64111500D01*
X53051968Y-62380500D02*
X53340000Y-62380500D01*
X50326000Y-59761000D02*
X50575945Y-59761000D01*
%TO.N,Net-(U1-PG)*%
X56896000Y-62183000D02*
X56331480Y-61618480D01*
X56331480Y-61618480D02*
X52854954Y-61618480D01*
X50885548Y-59111000D02*
X50326000Y-59111000D01*
X52854954Y-61618480D02*
X51957511Y-60721037D01*
X51957511Y-60721037D02*
X51957511Y-60182963D01*
X51957511Y-60182963D02*
X50885548Y-59111000D01*
D25*
%TO.N,Net-(D1-A)*%
X47204000Y-73660000D02*
X47204000Y-74858000D01*
X47204000Y-74858000D02*
X51274000Y-78928000D01*
X51274000Y-78928000D02*
X51274000Y-80264000D01*
%TD*%
M02*
