%TF.GenerationSoftware,KiCad,Pcbnew,9.0.1+1*%
%TF.CreationDate,2025-05-03T16:11:17-04:00*%
%TF.ProjectId,lg_hvac_esp32,6c675f68-7661-4635-9f65-737033322e6b,rev?*%
%TF.SameCoordinates,Original*%
%TF.FileFunction,Copper,L2,Inr*%
%TF.FilePolarity,Positive*%
%FSLAX46Y46*%
G04 Gerber Fmt 4.6, Leading zero omitted, Abs format (unit mm)*
G04 Created by KiCad (PCBNEW 9.0.1+1) date 2025-05-03 16:11:17*
%MOMM*%
%LPD*%
G01*
G04 APERTURE LIST*
G04 Aperture macros list*
%AMRoundRect*
0 Rectangle with rounded corners*
0 $1 Rounding radius*
0 $2 $3 $4 $5 $6 $7 $8 $9 X,Y pos of 4 corners*
0 Add a 4 corners polygon primitive as box body*
4,1,4,$2,$3,$4,$5,$6,$7,$8,$9,$2,$3,0*
0 Add four circle primitives for the rounded corners*
1,1,$1+$1,$2,$3*
1,1,$1+$1,$4,$5*
1,1,$1+$1,$6,$7*
1,1,$1+$1,$8,$9*
0 Add four rect primitives between the rounded corners*
20,1,$1+$1,$2,$3,$4,$5,0*
20,1,$1+$1,$4,$5,$6,$7,0*
20,1,$1+$1,$6,$7,$8,$9,0*
20,1,$1+$1,$8,$9,$2,$3,0*%
G04 Aperture macros list end*
%TA.AperFunction,ComponentPad*%
%ADD10O,1.700000X1.950000*%
%TD*%
%TA.AperFunction,ComponentPad*%
%ADD11RoundRect,0.250000X-0.600000X-0.725000X0.600000X-0.725000X0.600000X0.725000X-0.600000X0.725000X0*%
%TD*%
%TA.AperFunction,HeatsinkPad*%
%ADD12C,0.500000*%
%TD*%
%TA.AperFunction,ComponentPad*%
%ADD13R,1.700000X1.700000*%
%TD*%
%TA.AperFunction,ComponentPad*%
%ADD14C,1.700000*%
%TD*%
%TA.AperFunction,ViaPad*%
%ADD15C,0.800000*%
%TD*%
G04 APERTURE END LIST*
D10*
%TO.N,Net-(D1-A)*%
%TO.C,J1*%
X47204000Y-73660000D03*
%TO.N,LINBUS*%
X44704000Y-73660000D03*
D11*
%TO.N,GND*%
X42204000Y-73660000D03*
%TD*%
D12*
%TO.N,GND*%
%TO.C,U1*%
X49276000Y-58686000D03*
X49276000Y-59436000D03*
X49276000Y-60186000D03*
%TD*%
D13*
%TO.N,+3V3*%
%TO.C,J2*%
X36826320Y-34703840D03*
D14*
%TO.N,unconnected-(J2-Pin_2-Pad2)*%
X36826320Y-37243840D03*
%TO.N,unconnected-(J2-Pin_3-Pad3)*%
X36826320Y-39783840D03*
%TO.N,unconnected-(J2-Pin_4-Pad4)*%
X36826320Y-42323840D03*
%TO.N,unconnected-(J2-Pin_5-Pad5)*%
X36826320Y-44863840D03*
%TO.N,unconnected-(J2-Pin_6-Pad6)*%
X36826320Y-47403840D03*
%TO.N,unconnected-(J2-Pin_7-Pad7)*%
X36826320Y-49943840D03*
%TO.N,unconnected-(J2-Pin_8-Pad8)*%
X36826320Y-52483840D03*
%TO.N,TXD*%
X36826320Y-55023840D03*
%TO.N,RXD*%
X36826320Y-57563840D03*
%TO.N,unconnected-(J2-Pin_11-Pad11)*%
X36826320Y-60103840D03*
%TO.N,unconnected-(J2-Pin_12-Pad12)*%
X36826320Y-62643840D03*
%TO.N,unconnected-(J2-Pin_13-Pad13)*%
X36826320Y-65183840D03*
%TO.N,GND*%
X36826320Y-67723840D03*
%TO.N,unconnected-(J2-Pin_15-Pad15)*%
X36826320Y-70263840D03*
%TO.N,unconnected-(J2-Pin_16-Pad16)*%
X36826320Y-72803840D03*
%TO.N,unconnected-(J2-Pin_17-Pad17)*%
X36826320Y-75343840D03*
%TO.N,unconnected-(J2-Pin_18-Pad18)*%
X36826320Y-77883840D03*
%TO.N,unconnected-(J2-Pin_19-Pad19)*%
X36826320Y-80423840D03*
%TD*%
D13*
%TO.N,GND*%
%TO.C,J3*%
X62230000Y-34703840D03*
D14*
%TO.N,unconnected-(J3-Pin_2-Pad2)*%
X62230000Y-37243840D03*
%TO.N,unconnected-(J3-Pin_3-Pad3)*%
X62230000Y-39783840D03*
%TO.N,unconnected-(J3-Pin_4-Pad4)*%
X62230000Y-42323840D03*
%TO.N,unconnected-(J3-Pin_5-Pad5)*%
X62230000Y-44863840D03*
%TO.N,unconnected-(J3-Pin_6-Pad6)*%
X62230000Y-47403840D03*
%TO.N,GND*%
X62230000Y-49943840D03*
%TO.N,unconnected-(J3-Pin_8-Pad8)*%
X62230000Y-52483840D03*
%TO.N,unconnected-(J3-Pin_9-Pad9)*%
X62230000Y-55023840D03*
%TO.N,unconnected-(J3-Pin_10-Pad10)*%
X62230000Y-57563840D03*
%TO.N,unconnected-(J3-Pin_11-Pad11)*%
X62230000Y-60103840D03*
%TO.N,unconnected-(J3-Pin_12-Pad12)*%
X62230000Y-62643840D03*
%TO.N,unconnected-(J3-Pin_13-Pad13)*%
X62230000Y-65183840D03*
%TO.N,unconnected-(J3-Pin_14-Pad14)*%
X62230000Y-67723840D03*
%TO.N,unconnected-(J3-Pin_15-Pad15)*%
X62230000Y-70263840D03*
%TO.N,unconnected-(J3-Pin_16-Pad16)*%
X62230000Y-72803840D03*
%TO.N,unconnected-(J3-Pin_17-Pad17)*%
X62230000Y-75343840D03*
%TO.N,unconnected-(J3-Pin_18-Pad18)*%
X62230000Y-77883840D03*
%TO.N,unconnected-(J3-Pin_19-Pad19)*%
X62230000Y-80423840D03*
%TD*%
D15*
%TO.N,+12V*%
X53848000Y-78740000D03*
X52832000Y-78740000D03*
X52832000Y-75692000D03*
X45720000Y-58420000D03*
X43688000Y-69596000D03*
X45720000Y-59944000D03*
X52832000Y-76708000D03*
X46736000Y-66548000D03*
%TO.N,GND*%
X41656000Y-62992000D03*
X58420000Y-78232000D03*
X46736000Y-60960000D03*
X58420000Y-75184000D03*
X40640000Y-76708000D03*
X44704000Y-62484000D03*
X43180000Y-71120000D03*
X54864000Y-59944000D03*
X51308000Y-55372000D03*
%TO.N,+3V3*%
X51816000Y-67056000D03*
X53340000Y-67564000D03*
X55880000Y-69850000D03*
X49784000Y-61976000D03*
X58420000Y-64008000D03*
X51308000Y-61976000D03*
%TD*%
%TA.AperFunction,Conductor*%
%TO.N,GND*%
G36*
X38677121Y-32532502D02*
G01*
X38723614Y-32586158D01*
X38735000Y-32638500D01*
X38735000Y-53340000D01*
X60325000Y-53340000D01*
X60325000Y-37136924D01*
X60871500Y-37136924D01*
X60871500Y-37350756D01*
X60904951Y-37561956D01*
X60904952Y-37561961D01*
X60971026Y-37765318D01*
X60971028Y-37765323D01*
X61068106Y-37955849D01*
X61193794Y-38128844D01*
X61193796Y-38128846D01*
X61193798Y-38128849D01*
X61344990Y-38280041D01*
X61344993Y-38280043D01*
X61344996Y-38280046D01*
X61517991Y-38405734D01*
X61517996Y-38405736D01*
X61519088Y-38406406D01*
X61519418Y-38406771D01*
X61521996Y-38408644D01*
X61521602Y-38409185D01*
X61566721Y-38459053D01*
X61578328Y-38529095D01*
X61550226Y-38594293D01*
X61521870Y-38618863D01*
X61521996Y-38619036D01*
X61519982Y-38620498D01*
X61519088Y-38621274D01*
X61517987Y-38621948D01*
X61344993Y-38747636D01*
X61344990Y-38747638D01*
X61193798Y-38898830D01*
X61193796Y-38898833D01*
X61068108Y-39071827D01*
X60971029Y-39262355D01*
X60971026Y-39262361D01*
X60904952Y-39465718D01*
X60904951Y-39465723D01*
X60904951Y-39465724D01*
X60871500Y-39676924D01*
X60871500Y-39890756D01*
X60904951Y-40101956D01*
X60904952Y-40101961D01*
X60971026Y-40305318D01*
X60971028Y-40305323D01*
X61068106Y-40495849D01*
X61193794Y-40668844D01*
X61193796Y-40668846D01*
X61193798Y-40668849D01*
X61344990Y-40820041D01*
X61344993Y-40820043D01*
X61344996Y-40820046D01*
X61517991Y-40945734D01*
X61517996Y-40945736D01*
X61519088Y-40946406D01*
X61519418Y-40946771D01*
X61521996Y-40948644D01*
X61521602Y-40949185D01*
X61566721Y-40999053D01*
X61578328Y-41069095D01*
X61550226Y-41134293D01*
X61521870Y-41158863D01*
X61521996Y-41159036D01*
X61519982Y-41160498D01*
X61519088Y-41161274D01*
X61517987Y-41161948D01*
X61344993Y-41287636D01*
X61344990Y-41287638D01*
X61193798Y-41438830D01*
X61193796Y-41438833D01*
X61068108Y-41611827D01*
X60971029Y-41802355D01*
X60971026Y-41802361D01*
X60904952Y-42005718D01*
X60904951Y-42005723D01*
X60904951Y-42005724D01*
X60871500Y-42216924D01*
X60871500Y-42430756D01*
X60904951Y-42641956D01*
X60904952Y-42641961D01*
X60971026Y-42845318D01*
X60971028Y-42845323D01*
X61068106Y-43035849D01*
X61193794Y-43208844D01*
X61193796Y-43208846D01*
X61193798Y-43208849D01*
X61344990Y-43360041D01*
X61344993Y-43360043D01*
X61344996Y-43360046D01*
X61517991Y-43485734D01*
X61517996Y-43485736D01*
X61519088Y-43486406D01*
X61519418Y-43486771D01*
X61521996Y-43488644D01*
X61521602Y-43489185D01*
X61566721Y-43539053D01*
X61578328Y-43609095D01*
X61550226Y-43674293D01*
X61521870Y-43698863D01*
X61521996Y-43699036D01*
X61519982Y-43700498D01*
X61519088Y-43701274D01*
X61517987Y-43701948D01*
X61344993Y-43827636D01*
X61344990Y-43827638D01*
X61193798Y-43978830D01*
X61193796Y-43978833D01*
X61068108Y-44151827D01*
X60971029Y-44342355D01*
X60971026Y-44342361D01*
X60904952Y-44545718D01*
X60904951Y-44545723D01*
X60904951Y-44545724D01*
X60871500Y-44756924D01*
X60871500Y-44970756D01*
X60904951Y-45181956D01*
X60904952Y-45181961D01*
X60971026Y-45385318D01*
X60971028Y-45385323D01*
X61068106Y-45575849D01*
X61193794Y-45748844D01*
X61193796Y-45748846D01*
X61193798Y-45748849D01*
X61344990Y-45900041D01*
X61344993Y-45900043D01*
X61344996Y-45900046D01*
X61517991Y-46025734D01*
X61517996Y-46025736D01*
X61519088Y-46026406D01*
X61519418Y-46026771D01*
X61521996Y-46028644D01*
X61521602Y-46029185D01*
X61566721Y-46079053D01*
X61578328Y-46149095D01*
X61550226Y-46214293D01*
X61521870Y-46238863D01*
X61521996Y-46239036D01*
X61519982Y-46240498D01*
X61519088Y-46241274D01*
X61517987Y-46241948D01*
X61344993Y-46367636D01*
X61344990Y-46367638D01*
X61193798Y-46518830D01*
X61193796Y-46518833D01*
X61068108Y-46691827D01*
X60971029Y-46882355D01*
X60971026Y-46882361D01*
X60904952Y-47085718D01*
X60904951Y-47085723D01*
X60904951Y-47085724D01*
X60871500Y-47296924D01*
X60871500Y-47510756D01*
X60904951Y-47721956D01*
X60904952Y-47721961D01*
X60971026Y-47925318D01*
X60971028Y-47925323D01*
X61068106Y-48115849D01*
X61193794Y-48288844D01*
X61193796Y-48288846D01*
X61193798Y-48288849D01*
X61344990Y-48440041D01*
X61344993Y-48440043D01*
X61344996Y-48440046D01*
X61517991Y-48565734D01*
X61518001Y-48565739D01*
X61519567Y-48566699D01*
X61520042Y-48567224D01*
X61521996Y-48568644D01*
X61521697Y-48569054D01*
X61567200Y-48619345D01*
X61578808Y-48689386D01*
X61550707Y-48754585D01*
X61522157Y-48779324D01*
X61522259Y-48779464D01*
X61520639Y-48780640D01*
X61519574Y-48781564D01*
X61518261Y-48782368D01*
X61465831Y-48820461D01*
X61465831Y-48820462D01*
X62105051Y-49459682D01*
X62037007Y-49477915D01*
X61922993Y-49543741D01*
X61829901Y-49636833D01*
X61764075Y-49750847D01*
X61745842Y-49818891D01*
X61106622Y-49179671D01*
X61106621Y-49179671D01*
X61068534Y-49232093D01*
X60971493Y-49422547D01*
X60971490Y-49422553D01*
X60905440Y-49625836D01*
X60872000Y-49836966D01*
X60872000Y-50050713D01*
X60905440Y-50261843D01*
X60971490Y-50465126D01*
X60971493Y-50465132D01*
X61068535Y-50655588D01*
X61068536Y-50655590D01*
X61106620Y-50708007D01*
X61106621Y-50708008D01*
X61745841Y-50068787D01*
X61764075Y-50136833D01*
X61829901Y-50250847D01*
X61922993Y-50343939D01*
X62037007Y-50409765D01*
X62105051Y-50427997D01*
X61465831Y-51067218D01*
X61518247Y-51105301D01*
X61519566Y-51106110D01*
X61519962Y-51106548D01*
X61522258Y-51108216D01*
X61521907Y-51108698D01*
X61567199Y-51158755D01*
X61578809Y-51228796D01*
X61550708Y-51293995D01*
X61521925Y-51318938D01*
X61521996Y-51319036D01*
X61520862Y-51319859D01*
X61519580Y-51320971D01*
X61517998Y-51321940D01*
X61344993Y-51447636D01*
X61344990Y-51447638D01*
X61193798Y-51598830D01*
X61193796Y-51598833D01*
X61068108Y-51771827D01*
X60971029Y-51962355D01*
X60971026Y-51962361D01*
X60904952Y-52165718D01*
X60904951Y-52165723D01*
X60904951Y-52165724D01*
X60871500Y-52376924D01*
X60871500Y-52590756D01*
X60904951Y-52801956D01*
X60904952Y-52801961D01*
X60971026Y-53005318D01*
X60971028Y-53005323D01*
X61068106Y-53195849D01*
X61193794Y-53368844D01*
X61193796Y-53368846D01*
X61193798Y-53368849D01*
X61344990Y-53520041D01*
X61344993Y-53520043D01*
X61344996Y-53520046D01*
X61517991Y-53645734D01*
X61517996Y-53645736D01*
X61519088Y-53646406D01*
X61519418Y-53646771D01*
X61521996Y-53648644D01*
X61521602Y-53649185D01*
X61566721Y-53699053D01*
X61578328Y-53769095D01*
X61550226Y-53834293D01*
X61521870Y-53858863D01*
X61521996Y-53859036D01*
X61519982Y-53860498D01*
X61519088Y-53861274D01*
X61517987Y-53861948D01*
X61344993Y-53987636D01*
X61344990Y-53987638D01*
X61193798Y-54138830D01*
X61193796Y-54138833D01*
X61068108Y-54311827D01*
X60971029Y-54502355D01*
X60971026Y-54502361D01*
X60904952Y-54705718D01*
X60904951Y-54705723D01*
X60904951Y-54705724D01*
X60871500Y-54916924D01*
X60871500Y-55130756D01*
X60904951Y-55341956D01*
X60904952Y-55341961D01*
X60971026Y-55545318D01*
X60971028Y-55545323D01*
X61068106Y-55735849D01*
X61193794Y-55908844D01*
X61193796Y-55908846D01*
X61193798Y-55908849D01*
X61344990Y-56060041D01*
X61344993Y-56060043D01*
X61344996Y-56060046D01*
X61517991Y-56185734D01*
X61517996Y-56185736D01*
X61519088Y-56186406D01*
X61519418Y-56186771D01*
X61521996Y-56188644D01*
X61521602Y-56189185D01*
X61566721Y-56239053D01*
X61578328Y-56309095D01*
X61550226Y-56374293D01*
X61521870Y-56398863D01*
X61521996Y-56399036D01*
X61519982Y-56400498D01*
X61519088Y-56401274D01*
X61517987Y-56401948D01*
X61344993Y-56527636D01*
X61344990Y-56527638D01*
X61193798Y-56678830D01*
X61193796Y-56678833D01*
X61068108Y-56851827D01*
X60971029Y-57042355D01*
X60971026Y-57042361D01*
X60904952Y-57245718D01*
X60904951Y-57245723D01*
X60904951Y-57245724D01*
X60871500Y-57456924D01*
X60871500Y-57670756D01*
X60904951Y-57881956D01*
X60904952Y-57881961D01*
X60971026Y-58085318D01*
X60971028Y-58085323D01*
X61068106Y-58275849D01*
X61193794Y-58448844D01*
X61193796Y-58448846D01*
X61193798Y-58448849D01*
X61344990Y-58600041D01*
X61344993Y-58600043D01*
X61344996Y-58600046D01*
X61517991Y-58725734D01*
X61517996Y-58725736D01*
X61519088Y-58726406D01*
X61519418Y-58726771D01*
X61521996Y-58728644D01*
X61521602Y-58729185D01*
X61566721Y-58779053D01*
X61578328Y-58849095D01*
X61550226Y-58914293D01*
X61521870Y-58938863D01*
X61521996Y-58939036D01*
X61519982Y-58940498D01*
X61519088Y-58941274D01*
X61517987Y-58941948D01*
X61344993Y-59067636D01*
X61344990Y-59067638D01*
X61193798Y-59218830D01*
X61193796Y-59218833D01*
X61068108Y-59391827D01*
X60971029Y-59582355D01*
X60971026Y-59582361D01*
X60904952Y-59785718D01*
X60904951Y-59785723D01*
X60904951Y-59785724D01*
X60871500Y-59996924D01*
X60871500Y-60210756D01*
X60904951Y-60421956D01*
X60904952Y-60421961D01*
X60937826Y-60523137D01*
X60971028Y-60625323D01*
X61068106Y-60815849D01*
X61193794Y-60988844D01*
X61193796Y-60988846D01*
X61193798Y-60988849D01*
X61344990Y-61140041D01*
X61344993Y-61140043D01*
X61344996Y-61140046D01*
X61517991Y-61265734D01*
X61517996Y-61265736D01*
X61519088Y-61266406D01*
X61519418Y-61266771D01*
X61521996Y-61268644D01*
X61521602Y-61269185D01*
X61566721Y-61319053D01*
X61578328Y-61389095D01*
X61550226Y-61454293D01*
X61521870Y-61478863D01*
X61521996Y-61479036D01*
X61519982Y-61480498D01*
X61519088Y-61481274D01*
X61517987Y-61481948D01*
X61344993Y-61607636D01*
X61344990Y-61607638D01*
X61193798Y-61758830D01*
X61193796Y-61758833D01*
X61068108Y-61931827D01*
X60971029Y-62122355D01*
X60971026Y-62122361D01*
X60904952Y-62325718D01*
X60904951Y-62325723D01*
X60904951Y-62325724D01*
X60871500Y-62536924D01*
X60871500Y-62750756D01*
X60892683Y-62884499D01*
X60904952Y-62961961D01*
X60960985Y-63134414D01*
X60971028Y-63165323D01*
X61068106Y-63355849D01*
X61193794Y-63528844D01*
X61193796Y-63528846D01*
X61193798Y-63528849D01*
X61344990Y-63680041D01*
X61344993Y-63680043D01*
X61344996Y-63680046D01*
X61517991Y-63805734D01*
X61517996Y-63805736D01*
X61519088Y-63806406D01*
X61519418Y-63806771D01*
X61521996Y-63808644D01*
X61521602Y-63809185D01*
X61566721Y-63859053D01*
X61578328Y-63929095D01*
X61550226Y-63994293D01*
X61521870Y-64018863D01*
X61521996Y-64019036D01*
X61519982Y-64020498D01*
X61519088Y-64021274D01*
X61517987Y-64021948D01*
X61344993Y-64147636D01*
X61344990Y-64147638D01*
X61193798Y-64298830D01*
X61193796Y-64298833D01*
X61068108Y-64471827D01*
X60971029Y-64662355D01*
X60971026Y-64662361D01*
X60904952Y-64865718D01*
X60904951Y-64865723D01*
X60904951Y-64865724D01*
X60871500Y-65076924D01*
X60871500Y-65290756D01*
X60904951Y-65501956D01*
X60904952Y-65501961D01*
X60960985Y-65674414D01*
X60971028Y-65705323D01*
X61068106Y-65895849D01*
X61193794Y-66068844D01*
X61193796Y-66068846D01*
X61193798Y-66068849D01*
X61344990Y-66220041D01*
X61344993Y-66220043D01*
X61344996Y-66220046D01*
X61517991Y-66345734D01*
X61517996Y-66345736D01*
X61519088Y-66346406D01*
X61519418Y-66346771D01*
X61521996Y-66348644D01*
X61521602Y-66349185D01*
X61566721Y-66399053D01*
X61578328Y-66469095D01*
X61550226Y-66534293D01*
X61521870Y-66558863D01*
X61521996Y-66559036D01*
X61519982Y-66560498D01*
X61519088Y-66561274D01*
X61517987Y-66561948D01*
X61344993Y-66687636D01*
X61344990Y-66687638D01*
X61193798Y-66838830D01*
X61193796Y-66838833D01*
X61068108Y-67011827D01*
X60971029Y-67202355D01*
X60971026Y-67202361D01*
X60904952Y-67405718D01*
X60904951Y-67405723D01*
X60904951Y-67405724D01*
X60871500Y-67616924D01*
X60871500Y-67830756D01*
X60904933Y-68041843D01*
X60904952Y-68041961D01*
X60970964Y-68245126D01*
X60971028Y-68245323D01*
X61068106Y-68435849D01*
X61193794Y-68608844D01*
X61193796Y-68608846D01*
X61193798Y-68608849D01*
X61344990Y-68760041D01*
X61344993Y-68760043D01*
X61344996Y-68760046D01*
X61517991Y-68885734D01*
X61517996Y-68885736D01*
X61519088Y-68886406D01*
X61519418Y-68886771D01*
X61521996Y-68888644D01*
X61521602Y-68889185D01*
X61566721Y-68939053D01*
X61578328Y-69009095D01*
X61550226Y-69074293D01*
X61521870Y-69098863D01*
X61521996Y-69099036D01*
X61519982Y-69100498D01*
X61519088Y-69101274D01*
X61517987Y-69101948D01*
X61344993Y-69227636D01*
X61344990Y-69227638D01*
X61193798Y-69378830D01*
X61193796Y-69378833D01*
X61068108Y-69551827D01*
X60971029Y-69742355D01*
X60971026Y-69742361D01*
X60904952Y-69945718D01*
X60904951Y-69945723D01*
X60904951Y-69945724D01*
X60871500Y-70156924D01*
X60871500Y-70370756D01*
X60904951Y-70581956D01*
X60904952Y-70581961D01*
X60971026Y-70785318D01*
X60971028Y-70785323D01*
X61068106Y-70975849D01*
X61193794Y-71148844D01*
X61193796Y-71148846D01*
X61193798Y-71148849D01*
X61344990Y-71300041D01*
X61344993Y-71300043D01*
X61344996Y-71300046D01*
X61517991Y-71425734D01*
X61517996Y-71425736D01*
X61519088Y-71426406D01*
X61519418Y-71426771D01*
X61521996Y-71428644D01*
X61521602Y-71429185D01*
X61566721Y-71479053D01*
X61578328Y-71549095D01*
X61550226Y-71614293D01*
X61521870Y-71638863D01*
X61521996Y-71639036D01*
X61519982Y-71640498D01*
X61519088Y-71641274D01*
X61517987Y-71641948D01*
X61344993Y-71767636D01*
X61344990Y-71767638D01*
X61193798Y-71918830D01*
X61193796Y-71918833D01*
X61068108Y-72091827D01*
X60971029Y-72282355D01*
X60971026Y-72282361D01*
X60904952Y-72485718D01*
X60904951Y-72485723D01*
X60904951Y-72485724D01*
X60871500Y-72696924D01*
X60871500Y-72910756D01*
X60904951Y-73121956D01*
X60904952Y-73121961D01*
X60935952Y-73217370D01*
X60971028Y-73325323D01*
X61068106Y-73515849D01*
X61193794Y-73688844D01*
X61193796Y-73688846D01*
X61193798Y-73688849D01*
X61344990Y-73840041D01*
X61344993Y-73840043D01*
X61344996Y-73840046D01*
X61517991Y-73965734D01*
X61517996Y-73965736D01*
X61519088Y-73966406D01*
X61519418Y-73966771D01*
X61521996Y-73968644D01*
X61521602Y-73969185D01*
X61566721Y-74019053D01*
X61578328Y-74089095D01*
X61550226Y-74154293D01*
X61521870Y-74178863D01*
X61521996Y-74179036D01*
X61519982Y-74180498D01*
X61519088Y-74181274D01*
X61517987Y-74181948D01*
X61344993Y-74307636D01*
X61344990Y-74307638D01*
X61193798Y-74458830D01*
X61193796Y-74458833D01*
X61068108Y-74631827D01*
X60971029Y-74822355D01*
X60971026Y-74822361D01*
X60904952Y-75025718D01*
X60904951Y-75025723D01*
X60904951Y-75025724D01*
X60871500Y-75236924D01*
X60871500Y-75450756D01*
X60895538Y-75602522D01*
X60904952Y-75661961D01*
X60943786Y-75781481D01*
X60971028Y-75865323D01*
X61068106Y-76055849D01*
X61193794Y-76228844D01*
X61193796Y-76228846D01*
X61193798Y-76228849D01*
X61344990Y-76380041D01*
X61344993Y-76380043D01*
X61344996Y-76380046D01*
X61517991Y-76505734D01*
X61517996Y-76505736D01*
X61519088Y-76506406D01*
X61519418Y-76506771D01*
X61521996Y-76508644D01*
X61521602Y-76509185D01*
X61566721Y-76559053D01*
X61578328Y-76629095D01*
X61550226Y-76694293D01*
X61521870Y-76718863D01*
X61521996Y-76719036D01*
X61519982Y-76720498D01*
X61519088Y-76721274D01*
X61517987Y-76721948D01*
X61344993Y-76847636D01*
X61344990Y-76847638D01*
X61193798Y-76998830D01*
X61193796Y-76998833D01*
X61068108Y-77171827D01*
X60971029Y-77362355D01*
X60971026Y-77362361D01*
X60904952Y-77565718D01*
X60904951Y-77565723D01*
X60904951Y-77565724D01*
X60871500Y-77776924D01*
X60871500Y-77990756D01*
X60904951Y-78201956D01*
X60904952Y-78201961D01*
X60971026Y-78405318D01*
X60971028Y-78405323D01*
X61068106Y-78595849D01*
X61193794Y-78768844D01*
X61193796Y-78768846D01*
X61193798Y-78768849D01*
X61344990Y-78920041D01*
X61344993Y-78920043D01*
X61344996Y-78920046D01*
X61517991Y-79045734D01*
X61517996Y-79045736D01*
X61519088Y-79046406D01*
X61519418Y-79046771D01*
X61521996Y-79048644D01*
X61521602Y-79049185D01*
X61566721Y-79099053D01*
X61578328Y-79169095D01*
X61550226Y-79234293D01*
X61521870Y-79258863D01*
X61521996Y-79259036D01*
X61519982Y-79260498D01*
X61519088Y-79261274D01*
X61517987Y-79261948D01*
X61344993Y-79387636D01*
X61344990Y-79387638D01*
X61193798Y-79538830D01*
X61193796Y-79538833D01*
X61068108Y-79711827D01*
X60971029Y-79902355D01*
X60971026Y-79902361D01*
X60904952Y-80105718D01*
X60904951Y-80105723D01*
X60904951Y-80105724D01*
X60871500Y-80316924D01*
X60871500Y-80530756D01*
X60904951Y-80741956D01*
X60904952Y-80741961D01*
X60971026Y-80945318D01*
X60971028Y-80945323D01*
X61068106Y-81135849D01*
X61193794Y-81308844D01*
X61193796Y-81308846D01*
X61193798Y-81308849D01*
X61344990Y-81460041D01*
X61344993Y-81460043D01*
X61344996Y-81460046D01*
X61517991Y-81585734D01*
X61708517Y-81682812D01*
X61911878Y-81748887D01*
X61911879Y-81748887D01*
X61911884Y-81748889D01*
X62123084Y-81782340D01*
X62123087Y-81782340D01*
X62336913Y-81782340D01*
X62336916Y-81782340D01*
X62548116Y-81748889D01*
X62751483Y-81682812D01*
X62942009Y-81585734D01*
X63115004Y-81460046D01*
X63266206Y-81308844D01*
X63391894Y-81135849D01*
X63488972Y-80945323D01*
X63555049Y-80741956D01*
X63588500Y-80530756D01*
X63588500Y-80316924D01*
X63555049Y-80105724D01*
X63488972Y-79902357D01*
X63391894Y-79711831D01*
X63266206Y-79538836D01*
X63266203Y-79538833D01*
X63266201Y-79538830D01*
X63115009Y-79387638D01*
X63115006Y-79387636D01*
X63115004Y-79387634D01*
X62942009Y-79261946D01*
X62942007Y-79261945D01*
X62940920Y-79261279D01*
X62940591Y-79260915D01*
X62938004Y-79259036D01*
X62938398Y-79258492D01*
X62893283Y-79208636D01*
X62881670Y-79138596D01*
X62909766Y-79073395D01*
X62938130Y-79048818D01*
X62938004Y-79048644D01*
X62940030Y-79047171D01*
X62940920Y-79046401D01*
X62941997Y-79045739D01*
X62942009Y-79045734D01*
X63115004Y-78920046D01*
X63266206Y-78768844D01*
X63391894Y-78595849D01*
X63488972Y-78405323D01*
X63555049Y-78201956D01*
X63588500Y-77990756D01*
X63588500Y-77776924D01*
X63555049Y-77565724D01*
X63488972Y-77362357D01*
X63391894Y-77171831D01*
X63266206Y-76998836D01*
X63266203Y-76998833D01*
X63266201Y-76998830D01*
X63115009Y-76847638D01*
X63115006Y-76847636D01*
X63115004Y-76847634D01*
X62942009Y-76721946D01*
X62942007Y-76721945D01*
X62940920Y-76721279D01*
X62940591Y-76720915D01*
X62938004Y-76719036D01*
X62938398Y-76718492D01*
X62893283Y-76668636D01*
X62881670Y-76598596D01*
X62909766Y-76533395D01*
X62938130Y-76508818D01*
X62938004Y-76508644D01*
X62940030Y-76507171D01*
X62940920Y-76506401D01*
X62941997Y-76505739D01*
X62942009Y-76505734D01*
X63115004Y-76380046D01*
X63266206Y-76228844D01*
X63391894Y-76055849D01*
X63488972Y-75865323D01*
X63555049Y-75661956D01*
X63588500Y-75450756D01*
X63588500Y-75236924D01*
X63555049Y-75025724D01*
X63488972Y-74822357D01*
X63391894Y-74631831D01*
X63266206Y-74458836D01*
X63266203Y-74458833D01*
X63266201Y-74458830D01*
X63115009Y-74307638D01*
X63115006Y-74307636D01*
X63115004Y-74307634D01*
X62942009Y-74181946D01*
X62942007Y-74181945D01*
X62940920Y-74181279D01*
X62940591Y-74180915D01*
X62938004Y-74179036D01*
X62938398Y-74178492D01*
X62893283Y-74128636D01*
X62881670Y-74058596D01*
X62909766Y-73993395D01*
X62938130Y-73968818D01*
X62938004Y-73968644D01*
X62940030Y-73967171D01*
X62940920Y-73966401D01*
X62941997Y-73965739D01*
X62942009Y-73965734D01*
X63115004Y-73840046D01*
X63266206Y-73688844D01*
X63391894Y-73515849D01*
X63488972Y-73325323D01*
X63555049Y-73121956D01*
X63588500Y-72910756D01*
X63588500Y-72696924D01*
X63555049Y-72485724D01*
X63488972Y-72282357D01*
X63391894Y-72091831D01*
X63266206Y-71918836D01*
X63266203Y-71918833D01*
X63266201Y-71918830D01*
X63115009Y-71767638D01*
X63115006Y-71767636D01*
X63115004Y-71767634D01*
X62942009Y-71641946D01*
X62942007Y-71641945D01*
X62940920Y-71641279D01*
X62940591Y-71640915D01*
X62938004Y-71639036D01*
X62938398Y-71638492D01*
X62893283Y-71588636D01*
X62881670Y-71518596D01*
X62909766Y-71453395D01*
X62938130Y-71428818D01*
X62938004Y-71428644D01*
X62940030Y-71427171D01*
X62940920Y-71426401D01*
X62941997Y-71425739D01*
X62942009Y-71425734D01*
X63115004Y-71300046D01*
X63266206Y-71148844D01*
X63391894Y-70975849D01*
X63488972Y-70785323D01*
X63555049Y-70581956D01*
X63588500Y-70370756D01*
X63588500Y-70156924D01*
X63555049Y-69945724D01*
X63488972Y-69742357D01*
X63391894Y-69551831D01*
X63266206Y-69378836D01*
X63266203Y-69378833D01*
X63266201Y-69378830D01*
X63115009Y-69227638D01*
X63115006Y-69227636D01*
X63115004Y-69227634D01*
X62942009Y-69101946D01*
X62942007Y-69101945D01*
X62940920Y-69101279D01*
X62940591Y-69100915D01*
X62938004Y-69099036D01*
X62938398Y-69098492D01*
X62893283Y-69048636D01*
X62881670Y-68978596D01*
X62909766Y-68913395D01*
X62938130Y-68888818D01*
X62938004Y-68888644D01*
X62940030Y-68887171D01*
X62940920Y-68886401D01*
X62941997Y-68885739D01*
X62942009Y-68885734D01*
X63115004Y-68760046D01*
X63266206Y-68608844D01*
X63391894Y-68435849D01*
X63488972Y-68245323D01*
X63555049Y-68041956D01*
X63588500Y-67830756D01*
X63588500Y-67616924D01*
X63555049Y-67405724D01*
X63488972Y-67202357D01*
X63391894Y-67011831D01*
X63266206Y-66838836D01*
X63266203Y-66838833D01*
X63266201Y-66838830D01*
X63115009Y-66687638D01*
X63115006Y-66687636D01*
X63115004Y-66687634D01*
X62942009Y-66561946D01*
X62942007Y-66561945D01*
X62940920Y-66561279D01*
X62940591Y-66560915D01*
X62938004Y-66559036D01*
X62938398Y-66558492D01*
X62893283Y-66508636D01*
X62881670Y-66438596D01*
X62909766Y-66373395D01*
X62938130Y-66348818D01*
X62938004Y-66348644D01*
X62940030Y-66347171D01*
X62940920Y-66346401D01*
X62941997Y-66345739D01*
X62942009Y-66345734D01*
X63115004Y-66220046D01*
X63266206Y-66068844D01*
X63391894Y-65895849D01*
X63488972Y-65705323D01*
X63555049Y-65501956D01*
X63588500Y-65290756D01*
X63588500Y-65076924D01*
X63555049Y-64865724D01*
X63488972Y-64662357D01*
X63391894Y-64471831D01*
X63266206Y-64298836D01*
X63266203Y-64298833D01*
X63266201Y-64298830D01*
X63115009Y-64147638D01*
X63115006Y-64147636D01*
X63115004Y-64147634D01*
X62942009Y-64021946D01*
X62942007Y-64021945D01*
X62940920Y-64021279D01*
X62940591Y-64020915D01*
X62938004Y-64019036D01*
X62938398Y-64018492D01*
X62893283Y-63968636D01*
X62881670Y-63898596D01*
X62909766Y-63833395D01*
X62938130Y-63808818D01*
X62938004Y-63808644D01*
X62940030Y-63807171D01*
X62940920Y-63806401D01*
X62941997Y-63805739D01*
X62942009Y-63805734D01*
X63115004Y-63680046D01*
X63266206Y-63528844D01*
X63391894Y-63355849D01*
X63488972Y-63165323D01*
X63555049Y-62961956D01*
X63588500Y-62750756D01*
X63588500Y-62536924D01*
X63555049Y-62325724D01*
X63488972Y-62122357D01*
X63391894Y-61931831D01*
X63266206Y-61758836D01*
X63266203Y-61758833D01*
X63266201Y-61758830D01*
X63115009Y-61607638D01*
X63115006Y-61607636D01*
X63115004Y-61607634D01*
X62942009Y-61481946D01*
X62942007Y-61481945D01*
X62940920Y-61481279D01*
X62940591Y-61480915D01*
X62938004Y-61479036D01*
X62938398Y-61478492D01*
X62893283Y-61428636D01*
X62881670Y-61358596D01*
X62909766Y-61293395D01*
X62938130Y-61268818D01*
X62938004Y-61268644D01*
X62940030Y-61267171D01*
X62940920Y-61266401D01*
X62941997Y-61265739D01*
X62942009Y-61265734D01*
X63115004Y-61140046D01*
X63266206Y-60988844D01*
X63391894Y-60815849D01*
X63488972Y-60625323D01*
X63555049Y-60421956D01*
X63588500Y-60210756D01*
X63588500Y-59996924D01*
X63555049Y-59785724D01*
X63488972Y-59582357D01*
X63391894Y-59391831D01*
X63266206Y-59218836D01*
X63266203Y-59218833D01*
X63266201Y-59218830D01*
X63115009Y-59067638D01*
X63115006Y-59067636D01*
X63115004Y-59067634D01*
X62942009Y-58941946D01*
X62942007Y-58941945D01*
X62940920Y-58941279D01*
X62940591Y-58940915D01*
X62938004Y-58939036D01*
X62938398Y-58938492D01*
X62893283Y-58888636D01*
X62881670Y-58818596D01*
X62909766Y-58753395D01*
X62938130Y-58728818D01*
X62938004Y-58728644D01*
X62940030Y-58727171D01*
X62940920Y-58726401D01*
X62941997Y-58725739D01*
X62942009Y-58725734D01*
X63115004Y-58600046D01*
X63266206Y-58448844D01*
X63391894Y-58275849D01*
X63488972Y-58085323D01*
X63555049Y-57881956D01*
X63588500Y-57670756D01*
X63588500Y-57456924D01*
X63555049Y-57245724D01*
X63488972Y-57042357D01*
X63391894Y-56851831D01*
X63266206Y-56678836D01*
X63266203Y-56678833D01*
X63266201Y-56678830D01*
X63115009Y-56527638D01*
X63115006Y-56527636D01*
X63115004Y-56527634D01*
X62942009Y-56401946D01*
X62942007Y-56401945D01*
X62940920Y-56401279D01*
X62940591Y-56400915D01*
X62938004Y-56399036D01*
X62938398Y-56398492D01*
X62893283Y-56348636D01*
X62881670Y-56278596D01*
X62909766Y-56213395D01*
X62938130Y-56188818D01*
X62938004Y-56188644D01*
X62940030Y-56187171D01*
X62940920Y-56186401D01*
X62941997Y-56185739D01*
X62942009Y-56185734D01*
X63115004Y-56060046D01*
X63266206Y-55908844D01*
X63391894Y-55735849D01*
X63488972Y-55545323D01*
X63555049Y-55341956D01*
X63588500Y-55130756D01*
X63588500Y-54916924D01*
X63555049Y-54705724D01*
X63488972Y-54502357D01*
X63391894Y-54311831D01*
X63266206Y-54138836D01*
X63266203Y-54138833D01*
X63266201Y-54138830D01*
X63115009Y-53987638D01*
X63115006Y-53987636D01*
X63115004Y-53987634D01*
X62942009Y-53861946D01*
X62942007Y-53861945D01*
X62940920Y-53861279D01*
X62940591Y-53860915D01*
X62938004Y-53859036D01*
X62938398Y-53858492D01*
X62893283Y-53808636D01*
X62881670Y-53738596D01*
X62909766Y-53673395D01*
X62938130Y-53648818D01*
X62938004Y-53648644D01*
X62940030Y-53647171D01*
X62940920Y-53646401D01*
X62941997Y-53645739D01*
X62942009Y-53645734D01*
X63115004Y-53520046D01*
X63266206Y-53368844D01*
X63391894Y-53195849D01*
X63488972Y-53005323D01*
X63555049Y-52801956D01*
X63588500Y-52590756D01*
X63588500Y-52376924D01*
X63555049Y-52165724D01*
X63488972Y-51962357D01*
X63391894Y-51771831D01*
X63266206Y-51598836D01*
X63266203Y-51598833D01*
X63266201Y-51598830D01*
X63115009Y-51447638D01*
X63115006Y-51447636D01*
X63115004Y-51447634D01*
X63045806Y-51397358D01*
X62942006Y-51321943D01*
X62940427Y-51320976D01*
X62939952Y-51320451D01*
X62938004Y-51319036D01*
X62938301Y-51318626D01*
X62892797Y-51268328D01*
X62881191Y-51198286D01*
X62909296Y-51133089D01*
X62937843Y-51108357D01*
X62937741Y-51108217D01*
X62939384Y-51107022D01*
X62940451Y-51106099D01*
X62941756Y-51105299D01*
X62994167Y-51067218D01*
X62994167Y-51067216D01*
X62354948Y-50427997D01*
X62422993Y-50409765D01*
X62537007Y-50343939D01*
X62630099Y-50250847D01*
X62695925Y-50136833D01*
X62714157Y-50068788D01*
X63353376Y-50708007D01*
X63353378Y-50708007D01*
X63391463Y-50655590D01*
X63488506Y-50465132D01*
X63488509Y-50465126D01*
X63554559Y-50261843D01*
X63588000Y-50050713D01*
X63588000Y-49836966D01*
X63554559Y-49625836D01*
X63488509Y-49422553D01*
X63488506Y-49422547D01*
X63391464Y-49232091D01*
X63391463Y-49232089D01*
X63353378Y-49179671D01*
X62714157Y-49818891D01*
X62695925Y-49750847D01*
X62630099Y-49636833D01*
X62537007Y-49543741D01*
X62422993Y-49477915D01*
X62354947Y-49459681D01*
X62994168Y-48820461D01*
X62994167Y-48820460D01*
X62941750Y-48782376D01*
X62940428Y-48781566D01*
X62940030Y-48781126D01*
X62937742Y-48779464D01*
X62938091Y-48778983D01*
X62892797Y-48728918D01*
X62881191Y-48658876D01*
X62909295Y-48593679D01*
X62938075Y-48568743D01*
X62938004Y-48568644D01*
X62939158Y-48567805D01*
X62940441Y-48566694D01*
X62941992Y-48565742D01*
X62942009Y-48565734D01*
X63115004Y-48440046D01*
X63266206Y-48288844D01*
X63391894Y-48115849D01*
X63488972Y-47925323D01*
X63555049Y-47721956D01*
X63588500Y-47510756D01*
X63588500Y-47296924D01*
X63555049Y-47085724D01*
X63488972Y-46882357D01*
X63391894Y-46691831D01*
X63266206Y-46518836D01*
X63266203Y-46518833D01*
X63266201Y-46518830D01*
X63115009Y-46367638D01*
X63115006Y-46367636D01*
X63115004Y-46367634D01*
X62942009Y-46241946D01*
X62942007Y-46241945D01*
X62940920Y-46241279D01*
X62940591Y-46240915D01*
X62938004Y-46239036D01*
X62938398Y-46238492D01*
X62893283Y-46188636D01*
X62881670Y-46118596D01*
X62909766Y-46053395D01*
X62938130Y-46028818D01*
X62938004Y-46028644D01*
X62940030Y-46027171D01*
X62940920Y-46026401D01*
X62941997Y-46025739D01*
X62942009Y-46025734D01*
X63115004Y-45900046D01*
X63266206Y-45748844D01*
X63391894Y-45575849D01*
X63488972Y-45385323D01*
X63555049Y-45181956D01*
X63588500Y-44970756D01*
X63588500Y-44756924D01*
X63555049Y-44545724D01*
X63488972Y-44342357D01*
X63391894Y-44151831D01*
X63266206Y-43978836D01*
X63266203Y-43978833D01*
X63266201Y-43978830D01*
X63115009Y-43827638D01*
X63115006Y-43827636D01*
X63115004Y-43827634D01*
X62942009Y-43701946D01*
X62942007Y-43701945D01*
X62940920Y-43701279D01*
X62940591Y-43700915D01*
X62938004Y-43699036D01*
X62938398Y-43698492D01*
X62893283Y-43648636D01*
X62881670Y-43578596D01*
X62909766Y-43513395D01*
X62938130Y-43488818D01*
X62938004Y-43488644D01*
X62940030Y-43487171D01*
X62940920Y-43486401D01*
X62941997Y-43485739D01*
X62942009Y-43485734D01*
X63115004Y-43360046D01*
X63266206Y-43208844D01*
X63391894Y-43035849D01*
X63488972Y-42845323D01*
X63555049Y-42641956D01*
X63588500Y-42430756D01*
X63588500Y-42216924D01*
X63555049Y-42005724D01*
X63488972Y-41802357D01*
X63391894Y-41611831D01*
X63266206Y-41438836D01*
X63266203Y-41438833D01*
X63266201Y-41438830D01*
X63115009Y-41287638D01*
X63115006Y-41287636D01*
X63115004Y-41287634D01*
X62942009Y-41161946D01*
X62942007Y-41161945D01*
X62940920Y-41161279D01*
X62940591Y-41160915D01*
X62938004Y-41159036D01*
X62938398Y-41158492D01*
X62893283Y-41108636D01*
X62881670Y-41038596D01*
X62909766Y-40973395D01*
X62938130Y-40948818D01*
X62938004Y-40948644D01*
X62940030Y-40947171D01*
X62940920Y-40946401D01*
X62941997Y-40945739D01*
X62942009Y-40945734D01*
X63115004Y-40820046D01*
X63266206Y-40668844D01*
X63391894Y-40495849D01*
X63488972Y-40305323D01*
X63555049Y-40101956D01*
X63588500Y-39890756D01*
X63588500Y-39676924D01*
X63555049Y-39465724D01*
X63488972Y-39262357D01*
X63391894Y-39071831D01*
X63266206Y-38898836D01*
X63266203Y-38898833D01*
X63266201Y-38898830D01*
X63115009Y-38747638D01*
X63115006Y-38747636D01*
X63115004Y-38747634D01*
X62942009Y-38621946D01*
X62942007Y-38621945D01*
X62940920Y-38621279D01*
X62940591Y-38620915D01*
X62938004Y-38619036D01*
X62938398Y-38618492D01*
X62893283Y-38568636D01*
X62881670Y-38498596D01*
X62909766Y-38433395D01*
X62938130Y-38408818D01*
X62938004Y-38408644D01*
X62940030Y-38407171D01*
X62940920Y-38406401D01*
X62941997Y-38405739D01*
X62942009Y-38405734D01*
X63115004Y-38280046D01*
X63266206Y-38128844D01*
X63391894Y-37955849D01*
X63488972Y-37765323D01*
X63555049Y-37561956D01*
X63588500Y-37350756D01*
X63588500Y-37136924D01*
X63555049Y-36925724D01*
X63488972Y-36722357D01*
X63391894Y-36531831D01*
X63266206Y-36358836D01*
X63266203Y-36358833D01*
X63266201Y-36358830D01*
X63162840Y-36255469D01*
X63128814Y-36193157D01*
X63133879Y-36122342D01*
X63176426Y-36065506D01*
X63207903Y-36048318D01*
X63325965Y-36004284D01*
X63442904Y-35916744D01*
X63530444Y-35799805D01*
X63530444Y-35799804D01*
X63581494Y-35662933D01*
X63587999Y-35602437D01*
X63588000Y-35602425D01*
X63588000Y-34957840D01*
X62660703Y-34957840D01*
X62695925Y-34896833D01*
X62730000Y-34769666D01*
X62730000Y-34638014D01*
X62695925Y-34510847D01*
X62660703Y-34449840D01*
X63588000Y-34449840D01*
X63588000Y-33805254D01*
X63587999Y-33805242D01*
X63581494Y-33744746D01*
X63530444Y-33607875D01*
X63530444Y-33607874D01*
X63442904Y-33490935D01*
X63325965Y-33403395D01*
X63189093Y-33352345D01*
X63128597Y-33345840D01*
X62484000Y-33345840D01*
X62484000Y-34273137D01*
X62422993Y-34237915D01*
X62295826Y-34203840D01*
X62164174Y-34203840D01*
X62037007Y-34237915D01*
X61976000Y-34273137D01*
X61976000Y-33345840D01*
X61331402Y-33345840D01*
X61270906Y-33352345D01*
X61134035Y-33403395D01*
X61134034Y-33403395D01*
X61017095Y-33490935D01*
X60929555Y-33607874D01*
X60929555Y-33607875D01*
X60878505Y-33744746D01*
X60872000Y-33805242D01*
X60872000Y-34449840D01*
X61799297Y-34449840D01*
X61764075Y-34510847D01*
X61730000Y-34638014D01*
X61730000Y-34769666D01*
X61764075Y-34896833D01*
X61799297Y-34957840D01*
X60872000Y-34957840D01*
X60872000Y-35602437D01*
X60878505Y-35662933D01*
X60929555Y-35799804D01*
X60929555Y-35799805D01*
X61017095Y-35916744D01*
X61134034Y-36004284D01*
X61252096Y-36048318D01*
X61308932Y-36090864D01*
X61333743Y-36157385D01*
X61318652Y-36226759D01*
X61297160Y-36255469D01*
X61193794Y-36358835D01*
X61068108Y-36531827D01*
X60971029Y-36722355D01*
X60971026Y-36722361D01*
X60904952Y-36925718D01*
X60904951Y-36925723D01*
X60904951Y-36925724D01*
X60871500Y-37136924D01*
X60325000Y-37136924D01*
X60325000Y-32638500D01*
X60345002Y-32570379D01*
X60398658Y-32523886D01*
X60451000Y-32512500D01*
X63881500Y-32512500D01*
X63949621Y-32532502D01*
X63996114Y-32586158D01*
X64007500Y-32638500D01*
X64007500Y-82677500D01*
X63987498Y-82745621D01*
X63933842Y-82792114D01*
X63881500Y-82803500D01*
X35178500Y-82803500D01*
X35110379Y-82783498D01*
X35063886Y-82729842D01*
X35052500Y-82677500D01*
X35052500Y-33805190D01*
X35467820Y-33805190D01*
X35467820Y-35602489D01*
X35474329Y-35663036D01*
X35474331Y-35663044D01*
X35525430Y-35800042D01*
X35525432Y-35800047D01*
X35613058Y-35917101D01*
X35730111Y-36004726D01*
X35730112Y-36004726D01*
X35730116Y-36004729D01*
X35848031Y-36048709D01*
X35904863Y-36091254D01*
X35929674Y-36157774D01*
X35914583Y-36227148D01*
X35893091Y-36255858D01*
X35790114Y-36358835D01*
X35664428Y-36531827D01*
X35567349Y-36722355D01*
X35567346Y-36722361D01*
X35501272Y-36925718D01*
X35501271Y-36925723D01*
X35501271Y-36925724D01*
X35467820Y-37136924D01*
X35467820Y-37350756D01*
X35501271Y-37561956D01*
X35501272Y-37561961D01*
X35567346Y-37765318D01*
X35567348Y-37765323D01*
X35664426Y-37955849D01*
X35790114Y-38128844D01*
X35790116Y-38128846D01*
X35790118Y-38128849D01*
X35941310Y-38280041D01*
X35941313Y-38280043D01*
X35941316Y-38280046D01*
X36114311Y-38405734D01*
X36114316Y-38405736D01*
X36115408Y-38406406D01*
X36115738Y-38406771D01*
X36118316Y-38408644D01*
X36117922Y-38409185D01*
X36163041Y-38459053D01*
X36174648Y-38529095D01*
X36146546Y-38594293D01*
X36118190Y-38618863D01*
X36118316Y-38619036D01*
X36116302Y-38620498D01*
X36115408Y-38621274D01*
X36114307Y-38621948D01*
X35941313Y-38747636D01*
X35941310Y-38747638D01*
X35790118Y-38898830D01*
X35790116Y-38898833D01*
X35664428Y-39071827D01*
X35567349Y-39262355D01*
X35567346Y-39262361D01*
X35501272Y-39465718D01*
X35501271Y-39465723D01*
X35501271Y-39465724D01*
X35467820Y-39676924D01*
X35467820Y-39890756D01*
X35501271Y-40101956D01*
X35501272Y-40101961D01*
X35567346Y-40305318D01*
X35567348Y-40305323D01*
X35664426Y-40495849D01*
X35790114Y-40668844D01*
X35790116Y-40668846D01*
X35790118Y-40668849D01*
X35941310Y-40820041D01*
X35941313Y-40820043D01*
X35941316Y-40820046D01*
X36114311Y-40945734D01*
X36114316Y-40945736D01*
X36115408Y-40946406D01*
X36115738Y-40946771D01*
X36118316Y-40948644D01*
X36117922Y-40949185D01*
X36163041Y-40999053D01*
X36174648Y-41069095D01*
X36146546Y-41134293D01*
X36118190Y-41158863D01*
X36118316Y-41159036D01*
X36116302Y-41160498D01*
X36115408Y-41161274D01*
X36114307Y-41161948D01*
X35941313Y-41287636D01*
X35941310Y-41287638D01*
X35790118Y-41438830D01*
X35790116Y-41438833D01*
X35664428Y-41611827D01*
X35567349Y-41802355D01*
X35567346Y-41802361D01*
X35501272Y-42005718D01*
X35501271Y-42005723D01*
X35501271Y-42005724D01*
X35467820Y-42216924D01*
X35467820Y-42430756D01*
X35501271Y-42641956D01*
X35501272Y-42641961D01*
X35567346Y-42845318D01*
X35567348Y-42845323D01*
X35664426Y-43035849D01*
X35790114Y-43208844D01*
X35790116Y-43208846D01*
X35790118Y-43208849D01*
X35941310Y-43360041D01*
X35941313Y-43360043D01*
X35941316Y-43360046D01*
X36114311Y-43485734D01*
X36114316Y-43485736D01*
X36115408Y-43486406D01*
X36115738Y-43486771D01*
X36118316Y-43488644D01*
X36117922Y-43489185D01*
X36163041Y-43539053D01*
X36174648Y-43609095D01*
X36146546Y-43674293D01*
X36118190Y-43698863D01*
X36118316Y-43699036D01*
X36116302Y-43700498D01*
X36115408Y-43701274D01*
X36114307Y-43701948D01*
X35941313Y-43827636D01*
X35941310Y-43827638D01*
X35790118Y-43978830D01*
X35790116Y-43978833D01*
X35664428Y-44151827D01*
X35567349Y-44342355D01*
X35567346Y-44342361D01*
X35501272Y-44545718D01*
X35501271Y-44545723D01*
X35501271Y-44545724D01*
X35467820Y-44756924D01*
X35467820Y-44970756D01*
X35501271Y-45181956D01*
X35501272Y-45181961D01*
X35567346Y-45385318D01*
X35567348Y-45385323D01*
X35664426Y-45575849D01*
X35790114Y-45748844D01*
X35790116Y-45748846D01*
X35790118Y-45748849D01*
X35941310Y-45900041D01*
X35941313Y-45900043D01*
X35941316Y-45900046D01*
X36114311Y-46025734D01*
X36114316Y-46025736D01*
X36115408Y-46026406D01*
X36115738Y-46026771D01*
X36118316Y-46028644D01*
X36117922Y-46029185D01*
X36163041Y-46079053D01*
X36174648Y-46149095D01*
X36146546Y-46214293D01*
X36118190Y-46238863D01*
X36118316Y-46239036D01*
X36116302Y-46240498D01*
X36115408Y-46241274D01*
X36114307Y-46241948D01*
X35941313Y-46367636D01*
X35941310Y-46367638D01*
X35790118Y-46518830D01*
X35790116Y-46518833D01*
X35664428Y-46691827D01*
X35567349Y-46882355D01*
X35567346Y-46882361D01*
X35501272Y-47085718D01*
X35501271Y-47085723D01*
X35501271Y-47085724D01*
X35467820Y-47296924D01*
X35467820Y-47510756D01*
X35501271Y-47721956D01*
X35501272Y-47721961D01*
X35567346Y-47925318D01*
X35567348Y-47925323D01*
X35664426Y-48115849D01*
X35790114Y-48288844D01*
X35790116Y-48288846D01*
X35790118Y-48288849D01*
X35941310Y-48440041D01*
X35941313Y-48440043D01*
X35941316Y-48440046D01*
X36114311Y-48565734D01*
X36114316Y-48565736D01*
X36115408Y-48566406D01*
X36115738Y-48566771D01*
X36118316Y-48568644D01*
X36117922Y-48569185D01*
X36163041Y-48619053D01*
X36174648Y-48689095D01*
X36146546Y-48754293D01*
X36118190Y-48778863D01*
X36118316Y-48779036D01*
X36116302Y-48780498D01*
X36115408Y-48781274D01*
X36114307Y-48781948D01*
X35941313Y-48907636D01*
X35941310Y-48907638D01*
X35790118Y-49058830D01*
X35790116Y-49058833D01*
X35664428Y-49231827D01*
X35567349Y-49422355D01*
X35567346Y-49422361D01*
X35501272Y-49625718D01*
X35501271Y-49625723D01*
X35501271Y-49625724D01*
X35467820Y-49836924D01*
X35467820Y-50050756D01*
X35501253Y-50261843D01*
X35501272Y-50261961D01*
X35567284Y-50465126D01*
X35567348Y-50465323D01*
X35664426Y-50655849D01*
X35790114Y-50828844D01*
X35790116Y-50828846D01*
X35790118Y-50828849D01*
X35941310Y-50980041D01*
X35941313Y-50980043D01*
X35941316Y-50980046D01*
X36114311Y-51105734D01*
X36114316Y-51105736D01*
X36115408Y-51106406D01*
X36115738Y-51106771D01*
X36118316Y-51108644D01*
X36117922Y-51109185D01*
X36163041Y-51159053D01*
X36174648Y-51229095D01*
X36146546Y-51294293D01*
X36118190Y-51318863D01*
X36118316Y-51319036D01*
X36116302Y-51320498D01*
X36115408Y-51321274D01*
X36114307Y-51321948D01*
X35941313Y-51447636D01*
X35941310Y-51447638D01*
X35790118Y-51598830D01*
X35790116Y-51598833D01*
X35664428Y-51771827D01*
X35567349Y-51962355D01*
X35567346Y-51962361D01*
X35501272Y-52165718D01*
X35501271Y-52165723D01*
X35501271Y-52165724D01*
X35467820Y-52376924D01*
X35467820Y-52590756D01*
X35501271Y-52801956D01*
X35501272Y-52801961D01*
X35567346Y-53005318D01*
X35567348Y-53005323D01*
X35664426Y-53195849D01*
X35790114Y-53368844D01*
X35790116Y-53368846D01*
X35790118Y-53368849D01*
X35941310Y-53520041D01*
X35941313Y-53520043D01*
X35941316Y-53520046D01*
X36114311Y-53645734D01*
X36114316Y-53645736D01*
X36115408Y-53646406D01*
X36115738Y-53646771D01*
X36118316Y-53648644D01*
X36117922Y-53649185D01*
X36163041Y-53699053D01*
X36174648Y-53769095D01*
X36146546Y-53834293D01*
X36118190Y-53858863D01*
X36118316Y-53859036D01*
X36116302Y-53860498D01*
X36115408Y-53861274D01*
X36114307Y-53861948D01*
X35941313Y-53987636D01*
X35941310Y-53987638D01*
X35790118Y-54138830D01*
X35790116Y-54138833D01*
X35664428Y-54311827D01*
X35567349Y-54502355D01*
X35567346Y-54502361D01*
X35501272Y-54705718D01*
X35501271Y-54705723D01*
X35501271Y-54705724D01*
X35467820Y-54916924D01*
X35467820Y-55130756D01*
X35501271Y-55341956D01*
X35501272Y-55341961D01*
X35567346Y-55545318D01*
X35567348Y-55545323D01*
X35664426Y-55735849D01*
X35790114Y-55908844D01*
X35790116Y-55908846D01*
X35790118Y-55908849D01*
X35941310Y-56060041D01*
X35941313Y-56060043D01*
X35941316Y-56060046D01*
X36114311Y-56185734D01*
X36114316Y-56185736D01*
X36115408Y-56186406D01*
X36115738Y-56186771D01*
X36118316Y-56188644D01*
X36117922Y-56189185D01*
X36163041Y-56239053D01*
X36174648Y-56309095D01*
X36146546Y-56374293D01*
X36118190Y-56398863D01*
X36118316Y-56399036D01*
X36116302Y-56400498D01*
X36115408Y-56401274D01*
X36114307Y-56401948D01*
X35941313Y-56527636D01*
X35941310Y-56527638D01*
X35790118Y-56678830D01*
X35790116Y-56678833D01*
X35664428Y-56851827D01*
X35567349Y-57042355D01*
X35567346Y-57042361D01*
X35501272Y-57245718D01*
X35501271Y-57245723D01*
X35501271Y-57245724D01*
X35467820Y-57456924D01*
X35467820Y-57670756D01*
X35501271Y-57881956D01*
X35501272Y-57881961D01*
X35567346Y-58085318D01*
X35567348Y-58085323D01*
X35664426Y-58275849D01*
X35790114Y-58448844D01*
X35790116Y-58448846D01*
X35790118Y-58448849D01*
X35941310Y-58600041D01*
X35941313Y-58600043D01*
X35941316Y-58600046D01*
X36114311Y-58725734D01*
X36114316Y-58725736D01*
X36115408Y-58726406D01*
X36115738Y-58726771D01*
X36118316Y-58728644D01*
X36117922Y-58729185D01*
X36163041Y-58779053D01*
X36174648Y-58849095D01*
X36146546Y-58914293D01*
X36118190Y-58938863D01*
X36118316Y-58939036D01*
X36116302Y-58940498D01*
X36115408Y-58941274D01*
X36114307Y-58941948D01*
X35941313Y-59067636D01*
X35941310Y-59067638D01*
X35790118Y-59218830D01*
X35790116Y-59218833D01*
X35664428Y-59391827D01*
X35567349Y-59582355D01*
X35567346Y-59582361D01*
X35501272Y-59785718D01*
X35501271Y-59785723D01*
X35501271Y-59785724D01*
X35467820Y-59996924D01*
X35467820Y-60210756D01*
X35501271Y-60421956D01*
X35501272Y-60421961D01*
X35534146Y-60523137D01*
X35567348Y-60625323D01*
X35664426Y-60815849D01*
X35790114Y-60988844D01*
X35790116Y-60988846D01*
X35790118Y-60988849D01*
X35941310Y-61140041D01*
X35941313Y-61140043D01*
X35941316Y-61140046D01*
X36114311Y-61265734D01*
X36114316Y-61265736D01*
X36115408Y-61266406D01*
X36115738Y-61266771D01*
X36118316Y-61268644D01*
X36117922Y-61269185D01*
X36163041Y-61319053D01*
X36174648Y-61389095D01*
X36146546Y-61454293D01*
X36118190Y-61478863D01*
X36118316Y-61479036D01*
X36116302Y-61480498D01*
X36115408Y-61481274D01*
X36114307Y-61481948D01*
X35941313Y-61607636D01*
X35941310Y-61607638D01*
X35790118Y-61758830D01*
X35790116Y-61758833D01*
X35664428Y-61931827D01*
X35567349Y-62122355D01*
X35567346Y-62122361D01*
X35501272Y-62325718D01*
X35501271Y-62325723D01*
X35501271Y-62325724D01*
X35467820Y-62536924D01*
X35467820Y-62750756D01*
X35489003Y-62884499D01*
X35501272Y-62961961D01*
X35557305Y-63134414D01*
X35567348Y-63165323D01*
X35664426Y-63355849D01*
X35790114Y-63528844D01*
X35790116Y-63528846D01*
X35790118Y-63528849D01*
X35941310Y-63680041D01*
X35941313Y-63680043D01*
X35941316Y-63680046D01*
X36114311Y-63805734D01*
X36114316Y-63805736D01*
X36115408Y-63806406D01*
X36115738Y-63806771D01*
X36118316Y-63808644D01*
X36117922Y-63809185D01*
X36163041Y-63859053D01*
X36174648Y-63929095D01*
X36146546Y-63994293D01*
X36118190Y-64018863D01*
X36118316Y-64019036D01*
X36116302Y-64020498D01*
X36115408Y-64021274D01*
X36114307Y-64021948D01*
X35941313Y-64147636D01*
X35941310Y-64147638D01*
X35790118Y-64298830D01*
X35790116Y-64298833D01*
X35664428Y-64471827D01*
X35567349Y-64662355D01*
X35567346Y-64662361D01*
X35501272Y-64865718D01*
X35501271Y-64865723D01*
X35501271Y-64865724D01*
X35467820Y-65076924D01*
X35467820Y-65290756D01*
X35501271Y-65501956D01*
X35501272Y-65501961D01*
X35557305Y-65674414D01*
X35567348Y-65705323D01*
X35664426Y-65895849D01*
X35790114Y-66068844D01*
X35790116Y-66068846D01*
X35790118Y-66068849D01*
X35941310Y-66220041D01*
X35941313Y-66220043D01*
X35941316Y-66220046D01*
X36114311Y-66345734D01*
X36114321Y-66345739D01*
X36115887Y-66346699D01*
X36116362Y-66347224D01*
X36118316Y-66348644D01*
X36118017Y-66349054D01*
X36163520Y-66399345D01*
X36175128Y-66469386D01*
X36147027Y-66534585D01*
X36118477Y-66559324D01*
X36118579Y-66559464D01*
X36116959Y-66560640D01*
X36115894Y-66561564D01*
X36114581Y-66562368D01*
X36062151Y-66600461D01*
X36062151Y-66600462D01*
X36701371Y-67239682D01*
X36633327Y-67257915D01*
X36519313Y-67323741D01*
X36426221Y-67416833D01*
X36360395Y-67530847D01*
X36342162Y-67598891D01*
X35702942Y-66959671D01*
X35702941Y-66959671D01*
X35664854Y-67012093D01*
X35567813Y-67202547D01*
X35567810Y-67202553D01*
X35501760Y-67405836D01*
X35468320Y-67616966D01*
X35468320Y-67830713D01*
X35501760Y-68041843D01*
X35567810Y-68245126D01*
X35567813Y-68245132D01*
X35664855Y-68435588D01*
X35664856Y-68435590D01*
X35702940Y-68488007D01*
X35702941Y-68488008D01*
X36342161Y-67848787D01*
X36360395Y-67916833D01*
X36426221Y-68030847D01*
X36519313Y-68123939D01*
X36633327Y-68189765D01*
X36701371Y-68207997D01*
X36062151Y-68847218D01*
X36114567Y-68885301D01*
X36115886Y-68886110D01*
X36116282Y-68886548D01*
X36118578Y-68888216D01*
X36118227Y-68888698D01*
X36163519Y-68938755D01*
X36175129Y-69008796D01*
X36147028Y-69073995D01*
X36118245Y-69098938D01*
X36118316Y-69099036D01*
X36117182Y-69099859D01*
X36115900Y-69100971D01*
X36114318Y-69101940D01*
X35941313Y-69227636D01*
X35941310Y-69227638D01*
X35790118Y-69378830D01*
X35790116Y-69378833D01*
X35664428Y-69551827D01*
X35567349Y-69742355D01*
X35567346Y-69742361D01*
X35501272Y-69945718D01*
X35501271Y-69945723D01*
X35501271Y-69945724D01*
X35467820Y-70156924D01*
X35467820Y-70370756D01*
X35501271Y-70581956D01*
X35501272Y-70581961D01*
X35567346Y-70785318D01*
X35567348Y-70785323D01*
X35664426Y-70975849D01*
X35790114Y-71148844D01*
X35790116Y-71148846D01*
X35790118Y-71148849D01*
X35941310Y-71300041D01*
X35941313Y-71300043D01*
X35941316Y-71300046D01*
X36114311Y-71425734D01*
X36114316Y-71425736D01*
X36115408Y-71426406D01*
X36115738Y-71426771D01*
X36118316Y-71428644D01*
X36117922Y-71429185D01*
X36163041Y-71479053D01*
X36174648Y-71549095D01*
X36146546Y-71614293D01*
X36118190Y-71638863D01*
X36118316Y-71639036D01*
X36116302Y-71640498D01*
X36115408Y-71641274D01*
X36114307Y-71641948D01*
X35941313Y-71767636D01*
X35941310Y-71767638D01*
X35790118Y-71918830D01*
X35790116Y-71918833D01*
X35664428Y-72091827D01*
X35567349Y-72282355D01*
X35567346Y-72282361D01*
X35501272Y-72485718D01*
X35501271Y-72485723D01*
X35501271Y-72485724D01*
X35467820Y-72696924D01*
X35467820Y-72910756D01*
X35501271Y-73121956D01*
X35501272Y-73121961D01*
X35532272Y-73217370D01*
X35567348Y-73325323D01*
X35664426Y-73515849D01*
X35790114Y-73688844D01*
X35790116Y-73688846D01*
X35790118Y-73688849D01*
X35941310Y-73840041D01*
X35941313Y-73840043D01*
X35941316Y-73840046D01*
X36114311Y-73965734D01*
X36114316Y-73965736D01*
X36115408Y-73966406D01*
X36115738Y-73966771D01*
X36118316Y-73968644D01*
X36117922Y-73969185D01*
X36163041Y-74019053D01*
X36174648Y-74089095D01*
X36146546Y-74154293D01*
X36118190Y-74178863D01*
X36118316Y-74179036D01*
X36116302Y-74180498D01*
X36115408Y-74181274D01*
X36114307Y-74181948D01*
X35941313Y-74307636D01*
X35941310Y-74307638D01*
X35790118Y-74458830D01*
X35790116Y-74458833D01*
X35664428Y-74631827D01*
X35567349Y-74822355D01*
X35567346Y-74822361D01*
X35501272Y-75025718D01*
X35501271Y-75025723D01*
X35501271Y-75025724D01*
X35467820Y-75236924D01*
X35467820Y-75450756D01*
X35491858Y-75602522D01*
X35501272Y-75661961D01*
X35540106Y-75781481D01*
X35567348Y-75865323D01*
X35664426Y-76055849D01*
X35790114Y-76228844D01*
X35790116Y-76228846D01*
X35790118Y-76228849D01*
X35941310Y-76380041D01*
X35941313Y-76380043D01*
X35941316Y-76380046D01*
X36114311Y-76505734D01*
X36114316Y-76505736D01*
X36115408Y-76506406D01*
X36115738Y-76506771D01*
X36118316Y-76508644D01*
X36117922Y-76509185D01*
X36163041Y-76559053D01*
X36174648Y-76629095D01*
X36146546Y-76694293D01*
X36118190Y-76718863D01*
X36118316Y-76719036D01*
X36116302Y-76720498D01*
X36115408Y-76721274D01*
X36114307Y-76721948D01*
X35941313Y-76847636D01*
X35941310Y-76847638D01*
X35790118Y-76998830D01*
X35790116Y-76998833D01*
X35664428Y-77171827D01*
X35567349Y-77362355D01*
X35567346Y-77362361D01*
X35501272Y-77565718D01*
X35501271Y-77565723D01*
X35501271Y-77565724D01*
X35467820Y-77776924D01*
X35467820Y-77990756D01*
X35501271Y-78201956D01*
X35501272Y-78201961D01*
X35567346Y-78405318D01*
X35567348Y-78405323D01*
X35664426Y-78595849D01*
X35790114Y-78768844D01*
X35790116Y-78768846D01*
X35790118Y-78768849D01*
X35941310Y-78920041D01*
X35941313Y-78920043D01*
X35941316Y-78920046D01*
X36114311Y-79045734D01*
X36114316Y-79045736D01*
X36115408Y-79046406D01*
X36115738Y-79046771D01*
X36118316Y-79048644D01*
X36117922Y-79049185D01*
X36163041Y-79099053D01*
X36174648Y-79169095D01*
X36146546Y-79234293D01*
X36118190Y-79258863D01*
X36118316Y-79259036D01*
X36116302Y-79260498D01*
X36115408Y-79261274D01*
X36114307Y-79261948D01*
X35941313Y-79387636D01*
X35941310Y-79387638D01*
X35790118Y-79538830D01*
X35790116Y-79538833D01*
X35664428Y-79711827D01*
X35567349Y-79902355D01*
X35567346Y-79902361D01*
X35501272Y-80105718D01*
X35501271Y-80105723D01*
X35501271Y-80105724D01*
X35467820Y-80316924D01*
X35467820Y-80530756D01*
X35501271Y-80741956D01*
X35501272Y-80741961D01*
X35567346Y-80945318D01*
X35567348Y-80945323D01*
X35664426Y-81135849D01*
X35790114Y-81308844D01*
X35790116Y-81308846D01*
X35790118Y-81308849D01*
X35941310Y-81460041D01*
X35941313Y-81460043D01*
X35941316Y-81460046D01*
X36114311Y-81585734D01*
X36304837Y-81682812D01*
X36508198Y-81748887D01*
X36508199Y-81748887D01*
X36508204Y-81748889D01*
X36719404Y-81782340D01*
X36719407Y-81782340D01*
X36933233Y-81782340D01*
X36933236Y-81782340D01*
X37144436Y-81748889D01*
X37347803Y-81682812D01*
X37538329Y-81585734D01*
X37711324Y-81460046D01*
X37862526Y-81308844D01*
X37988214Y-81135849D01*
X38085292Y-80945323D01*
X38151369Y-80741956D01*
X38184820Y-80530756D01*
X38184820Y-80316924D01*
X38151369Y-80105724D01*
X38085292Y-79902357D01*
X37988214Y-79711831D01*
X37862526Y-79538836D01*
X37862523Y-79538833D01*
X37862521Y-79538830D01*
X37711329Y-79387638D01*
X37711326Y-79387636D01*
X37711324Y-79387634D01*
X37538329Y-79261946D01*
X37538327Y-79261945D01*
X37537240Y-79261279D01*
X37536911Y-79260915D01*
X37534324Y-79259036D01*
X37534718Y-79258492D01*
X37489603Y-79208636D01*
X37477990Y-79138596D01*
X37506086Y-79073395D01*
X37534450Y-79048818D01*
X37534324Y-79048644D01*
X37536350Y-79047171D01*
X37537240Y-79046401D01*
X37538317Y-79045739D01*
X37538329Y-79045734D01*
X37711324Y-78920046D01*
X37862526Y-78768844D01*
X37988214Y-78595849D01*
X38085292Y-78405323D01*
X38151369Y-78201956D01*
X38184820Y-77990756D01*
X38184820Y-77776924D01*
X38151369Y-77565724D01*
X38085292Y-77362357D01*
X37988214Y-77171831D01*
X37862526Y-76998836D01*
X37862523Y-76998833D01*
X37862521Y-76998830D01*
X37711329Y-76847638D01*
X37711326Y-76847636D01*
X37711324Y-76847634D01*
X37538329Y-76721946D01*
X37538327Y-76721945D01*
X37537240Y-76721279D01*
X37536911Y-76720915D01*
X37534324Y-76719036D01*
X37534718Y-76718492D01*
X37489603Y-76668636D01*
X37477990Y-76598596D01*
X37506086Y-76533395D01*
X37534450Y-76508818D01*
X37534324Y-76508644D01*
X37536350Y-76507171D01*
X37537240Y-76506401D01*
X37538317Y-76505739D01*
X37538329Y-76505734D01*
X37711324Y-76380046D01*
X37862526Y-76228844D01*
X37988214Y-76055849D01*
X38085292Y-75865323D01*
X38151369Y-75661956D01*
X38160783Y-75602518D01*
X51923500Y-75602518D01*
X51923500Y-75602521D01*
X51923500Y-75781479D01*
X51958413Y-75957000D01*
X52026898Y-76122336D01*
X52026899Y-76122337D01*
X52032020Y-76130002D01*
X52053232Y-76197756D01*
X52034446Y-76266222D01*
X52032020Y-76269998D01*
X52026899Y-76277662D01*
X51958414Y-76442996D01*
X51923500Y-76618518D01*
X51923500Y-76618521D01*
X51923500Y-76797479D01*
X51958413Y-76973000D01*
X52026898Y-77138336D01*
X52126322Y-77287135D01*
X52252865Y-77413678D01*
X52401664Y-77513102D01*
X52567000Y-77581587D01*
X52661686Y-77600421D01*
X52724595Y-77633329D01*
X52759727Y-77695024D01*
X52755927Y-77765919D01*
X52714401Y-77823505D01*
X52661686Y-77847578D01*
X52567000Y-77866413D01*
X52566999Y-77866413D01*
X52566996Y-77866414D01*
X52401662Y-77934899D01*
X52252869Y-78034319D01*
X52252862Y-78034324D01*
X52126324Y-78160862D01*
X52126319Y-78160869D01*
X52026899Y-78309662D01*
X51958414Y-78474996D01*
X51923500Y-78650518D01*
X51923500Y-78650521D01*
X51923500Y-78829479D01*
X51958413Y-79005000D01*
X52026898Y-79170336D01*
X52126322Y-79319135D01*
X52252865Y-79445678D01*
X52401664Y-79545102D01*
X52567000Y-79613587D01*
X52742521Y-79648500D01*
X52742522Y-79648500D01*
X52921478Y-79648500D01*
X52921479Y-79648500D01*
X53097000Y-79613587D01*
X53262336Y-79545102D01*
X53269994Y-79539984D01*
X53337744Y-79518767D01*
X53406212Y-79537547D01*
X53409979Y-79539967D01*
X53415176Y-79543439D01*
X53417662Y-79545101D01*
X53417663Y-79545101D01*
X53417664Y-79545102D01*
X53583000Y-79613587D01*
X53758521Y-79648500D01*
X53758522Y-79648500D01*
X53937478Y-79648500D01*
X53937479Y-79648500D01*
X54113000Y-79613587D01*
X54278336Y-79545102D01*
X54427135Y-79445678D01*
X54553678Y-79319135D01*
X54653102Y-79170336D01*
X54721587Y-79005000D01*
X54756500Y-78829479D01*
X54756500Y-78650521D01*
X54721587Y-78475000D01*
X54653102Y-78309664D01*
X54553678Y-78160865D01*
X54427135Y-78034322D01*
X54278336Y-77934898D01*
X54161429Y-77886473D01*
X54113003Y-77866414D01*
X54113001Y-77866413D01*
X54113000Y-77866413D01*
X54018314Y-77847579D01*
X53937481Y-77831500D01*
X53937479Y-77831500D01*
X53758521Y-77831500D01*
X53758518Y-77831500D01*
X53627771Y-77857507D01*
X53583000Y-77866413D01*
X53582999Y-77866413D01*
X53582996Y-77866414D01*
X53417662Y-77934899D01*
X53409998Y-77940020D01*
X53342244Y-77961232D01*
X53273778Y-77942446D01*
X53270002Y-77940020D01*
X53262337Y-77934899D01*
X53262338Y-77934899D01*
X53262336Y-77934898D01*
X53145429Y-77886473D01*
X53097003Y-77866414D01*
X53097001Y-77866413D01*
X53097000Y-77866413D01*
X53002312Y-77847578D01*
X52939404Y-77814671D01*
X52904272Y-77752976D01*
X52908072Y-77682081D01*
X52949598Y-77624495D01*
X53002312Y-77600421D01*
X53097000Y-77581587D01*
X53262336Y-77513102D01*
X53411135Y-77413678D01*
X53537678Y-77287135D01*
X53637102Y-77138336D01*
X53705587Y-76973000D01*
X53740500Y-76797479D01*
X53740500Y-76618521D01*
X53705587Y-76443000D01*
X53637102Y-76277664D01*
X53631984Y-76270005D01*
X53610767Y-76202256D01*
X53629547Y-76133788D01*
X53631967Y-76130020D01*
X53637102Y-76122336D01*
X53705587Y-75957000D01*
X53740500Y-75781479D01*
X53740500Y-75602521D01*
X53705587Y-75427000D01*
X53637102Y-75261664D01*
X53537678Y-75112865D01*
X53411135Y-74986322D01*
X53262336Y-74886898D01*
X53145429Y-74838473D01*
X53097003Y-74818414D01*
X53097001Y-74818413D01*
X53097000Y-74818413D01*
X53008645Y-74800838D01*
X52921481Y-74783500D01*
X52921479Y-74783500D01*
X52742521Y-74783500D01*
X52742518Y-74783500D01*
X52611771Y-74809507D01*
X52567000Y-74818413D01*
X52566999Y-74818413D01*
X52566996Y-74818414D01*
X52401662Y-74886899D01*
X52252869Y-74986319D01*
X52252862Y-74986324D01*
X52126324Y-75112862D01*
X52126319Y-75112869D01*
X52026899Y-75261662D01*
X51958414Y-75426996D01*
X51958413Y-75426999D01*
X51958413Y-75427000D01*
X51953688Y-75450756D01*
X51923500Y-75602518D01*
X38160783Y-75602518D01*
X38184820Y-75450756D01*
X38184820Y-75236924D01*
X38151369Y-75025724D01*
X38085292Y-74822357D01*
X37988214Y-74631831D01*
X37862526Y-74458836D01*
X37862523Y-74458833D01*
X37862521Y-74458830D01*
X37711329Y-74307638D01*
X37711326Y-74307636D01*
X37711324Y-74307634D01*
X37538329Y-74181946D01*
X37538327Y-74181945D01*
X37537240Y-74181279D01*
X37536911Y-74180915D01*
X37534324Y-74179036D01*
X37534718Y-74178492D01*
X37489603Y-74128636D01*
X37477990Y-74058596D01*
X37506086Y-73993395D01*
X37534450Y-73968818D01*
X37534324Y-73968644D01*
X37536350Y-73967171D01*
X37537240Y-73966401D01*
X37538317Y-73965739D01*
X37538329Y-73965734D01*
X37711324Y-73840046D01*
X37711329Y-73840041D01*
X37778657Y-73772714D01*
X37862521Y-73688849D01*
X37862526Y-73688844D01*
X37988214Y-73515849D01*
X38085292Y-73325323D01*
X38151369Y-73121956D01*
X38184820Y-72910756D01*
X38184820Y-72884483D01*
X40846000Y-72884483D01*
X40846000Y-73406000D01*
X41802164Y-73406000D01*
X41761370Y-73476657D01*
X41729000Y-73597465D01*
X41729000Y-73722535D01*
X41761370Y-73843343D01*
X41802164Y-73914000D01*
X40846000Y-73914000D01*
X40846000Y-74435516D01*
X40856605Y-74539318D01*
X40856606Y-74539321D01*
X40912342Y-74707525D01*
X41005365Y-74858339D01*
X41005370Y-74858345D01*
X41130654Y-74983629D01*
X41130660Y-74983634D01*
X41281474Y-75076657D01*
X41449678Y-75132393D01*
X41449681Y-75132394D01*
X41553483Y-75142999D01*
X41553483Y-75143000D01*
X41950000Y-75143000D01*
X41950000Y-74061836D01*
X42020657Y-74102630D01*
X42141465Y-74135000D01*
X42266535Y-74135000D01*
X42387343Y-74102630D01*
X42458000Y-74061836D01*
X42458000Y-75143000D01*
X42854517Y-75143000D01*
X42854516Y-75142999D01*
X42958318Y-75132394D01*
X42958321Y-75132393D01*
X43126525Y-75076657D01*
X43277339Y-74983634D01*
X43277345Y-74983629D01*
X43402629Y-74858345D01*
X43402636Y-74858336D01*
X43491984Y-74713480D01*
X43544769Y-74666001D01*
X43614844Y-74654598D01*
X43679960Y-74682890D01*
X43688320Y-74690531D01*
X43818990Y-74821201D01*
X43818993Y-74821203D01*
X43818996Y-74821206D01*
X43991991Y-74946894D01*
X44182517Y-75043972D01*
X44385878Y-75110047D01*
X44385879Y-75110047D01*
X44385884Y-75110049D01*
X44597084Y-75143500D01*
X44597087Y-75143500D01*
X44810913Y-75143500D01*
X44810916Y-75143500D01*
X45022116Y-75110049D01*
X45225483Y-75043972D01*
X45416009Y-74946894D01*
X45589004Y-74821206D01*
X45740206Y-74670004D01*
X45852064Y-74516043D01*
X45908286Y-74472690D01*
X45979022Y-74466615D01*
X46041814Y-74499746D01*
X46055934Y-74516041D01*
X46167794Y-74670004D01*
X46167796Y-74670006D01*
X46167798Y-74670009D01*
X46318990Y-74821201D01*
X46318993Y-74821203D01*
X46318996Y-74821206D01*
X46491991Y-74946894D01*
X46682517Y-75043972D01*
X46885878Y-75110047D01*
X46885879Y-75110047D01*
X46885884Y-75110049D01*
X47097084Y-75143500D01*
X47097087Y-75143500D01*
X47310913Y-75143500D01*
X47310916Y-75143500D01*
X47522116Y-75110049D01*
X47725483Y-75043972D01*
X47916009Y-74946894D01*
X48089004Y-74821206D01*
X48240206Y-74670004D01*
X48365894Y-74497009D01*
X48462972Y-74306483D01*
X48529049Y-74103116D01*
X48562500Y-73891916D01*
X48562500Y-73428084D01*
X48529049Y-73216884D01*
X48462972Y-73013517D01*
X48365894Y-72822991D01*
X48240206Y-72649996D01*
X48240203Y-72649993D01*
X48240201Y-72649990D01*
X48089009Y-72498798D01*
X48089006Y-72498796D01*
X48089004Y-72498794D01*
X47916009Y-72373106D01*
X47725483Y-72276028D01*
X47725480Y-72276027D01*
X47725478Y-72276026D01*
X47522120Y-72209952D01*
X47522123Y-72209952D01*
X47482801Y-72203724D01*
X47310916Y-72176500D01*
X47097084Y-72176500D01*
X46885884Y-72209951D01*
X46885878Y-72209952D01*
X46682521Y-72276026D01*
X46682515Y-72276029D01*
X46491987Y-72373108D01*
X46318993Y-72498796D01*
X46318990Y-72498798D01*
X46167798Y-72649990D01*
X46167796Y-72649993D01*
X46055936Y-72803955D01*
X45999714Y-72847309D01*
X45928977Y-72853384D01*
X45866186Y-72820252D01*
X45852064Y-72803955D01*
X45774301Y-72696924D01*
X45740206Y-72649996D01*
X45740203Y-72649993D01*
X45740201Y-72649990D01*
X45589009Y-72498798D01*
X45589006Y-72498796D01*
X45589004Y-72498794D01*
X45416009Y-72373106D01*
X45225483Y-72276028D01*
X45225480Y-72276027D01*
X45225478Y-72276026D01*
X45022120Y-72209952D01*
X45022123Y-72209952D01*
X44982801Y-72203724D01*
X44810916Y-72176500D01*
X44597084Y-72176500D01*
X44385884Y-72209951D01*
X44385878Y-72209952D01*
X44182521Y-72276026D01*
X44182515Y-72276029D01*
X43991987Y-72373108D01*
X43818995Y-72498794D01*
X43688320Y-72629469D01*
X43626008Y-72663494D01*
X43555192Y-72658429D01*
X43498357Y-72615882D01*
X43491984Y-72606520D01*
X43402634Y-72461660D01*
X43402629Y-72461654D01*
X43277345Y-72336370D01*
X43277339Y-72336365D01*
X43126525Y-72243342D01*
X42958321Y-72187606D01*
X42958318Y-72187605D01*
X42854516Y-72177000D01*
X42458000Y-72177000D01*
X42458000Y-73258163D01*
X42387343Y-73217370D01*
X42266535Y-73185000D01*
X42141465Y-73185000D01*
X42020657Y-73217370D01*
X41950000Y-73258163D01*
X41950000Y-72177000D01*
X41553483Y-72177000D01*
X41449681Y-72187605D01*
X41449678Y-72187606D01*
X41281474Y-72243342D01*
X41130660Y-72336365D01*
X41130654Y-72336370D01*
X41005370Y-72461654D01*
X41005365Y-72461660D01*
X40912342Y-72612474D01*
X40856606Y-72780678D01*
X40856605Y-72780681D01*
X40846000Y-72884483D01*
X38184820Y-72884483D01*
X38184820Y-72696924D01*
X38151369Y-72485724D01*
X38085292Y-72282357D01*
X37988214Y-72091831D01*
X37862526Y-71918836D01*
X37862523Y-71918833D01*
X37862521Y-71918830D01*
X37711329Y-71767638D01*
X37711326Y-71767636D01*
X37711324Y-71767634D01*
X37538329Y-71641946D01*
X37538327Y-71641945D01*
X37537240Y-71641279D01*
X37536911Y-71640915D01*
X37534324Y-71639036D01*
X37534718Y-71638492D01*
X37489603Y-71588636D01*
X37477990Y-71518596D01*
X37506086Y-71453395D01*
X37534450Y-71428818D01*
X37534324Y-71428644D01*
X37536350Y-71427171D01*
X37537240Y-71426401D01*
X37538317Y-71425739D01*
X37538329Y-71425734D01*
X37711324Y-71300046D01*
X37862526Y-71148844D01*
X37988214Y-70975849D01*
X38085292Y-70785323D01*
X38151369Y-70581956D01*
X38184820Y-70370756D01*
X38184820Y-70156924D01*
X38151369Y-69945724D01*
X38085292Y-69742357D01*
X37988214Y-69551831D01*
X37988211Y-69551827D01*
X37955292Y-69506518D01*
X42779500Y-69506518D01*
X42779500Y-69506521D01*
X42779500Y-69685479D01*
X42814413Y-69861000D01*
X42882898Y-70026336D01*
X42982322Y-70175135D01*
X43108865Y-70301678D01*
X43257664Y-70401102D01*
X43423000Y-70469587D01*
X43598521Y-70504500D01*
X43598522Y-70504500D01*
X43777478Y-70504500D01*
X43777479Y-70504500D01*
X43953000Y-70469587D01*
X44118336Y-70401102D01*
X44267135Y-70301678D01*
X44393678Y-70175135D01*
X44493102Y-70026336D01*
X44561587Y-69861000D01*
X44581574Y-69760518D01*
X54971500Y-69760518D01*
X54971500Y-69760521D01*
X54971500Y-69939479D01*
X55006413Y-70115000D01*
X55074898Y-70280336D01*
X55174322Y-70429135D01*
X55300865Y-70555678D01*
X55449664Y-70655102D01*
X55615000Y-70723587D01*
X55790521Y-70758500D01*
X55790522Y-70758500D01*
X55969478Y-70758500D01*
X55969479Y-70758500D01*
X56145000Y-70723587D01*
X56310336Y-70655102D01*
X56459135Y-70555678D01*
X56585678Y-70429135D01*
X56685102Y-70280336D01*
X56753587Y-70115000D01*
X56788500Y-69939479D01*
X56788500Y-69760521D01*
X56753587Y-69585000D01*
X56685102Y-69419664D01*
X56585678Y-69270865D01*
X56459135Y-69144322D01*
X56310336Y-69044898D01*
X56187072Y-68993840D01*
X56145003Y-68976414D01*
X56145001Y-68976413D01*
X56145000Y-68976413D01*
X56056645Y-68958838D01*
X55969481Y-68941500D01*
X55969479Y-68941500D01*
X55790521Y-68941500D01*
X55790518Y-68941500D01*
X55659771Y-68967507D01*
X55615000Y-68976413D01*
X55614999Y-68976413D01*
X55614996Y-68976414D01*
X55449662Y-69044899D01*
X55300869Y-69144319D01*
X55300862Y-69144324D01*
X55174324Y-69270862D01*
X55174319Y-69270869D01*
X55074899Y-69419662D01*
X55006414Y-69584996D01*
X54971500Y-69760518D01*
X44581574Y-69760518D01*
X44596500Y-69685479D01*
X44596500Y-69506521D01*
X44561587Y-69331000D01*
X44493102Y-69165664D01*
X44393678Y-69016865D01*
X44267135Y-68890322D01*
X44118336Y-68790898D01*
X44001429Y-68742473D01*
X43953003Y-68722414D01*
X43953001Y-68722413D01*
X43953000Y-68722413D01*
X43864645Y-68704838D01*
X43777481Y-68687500D01*
X43777479Y-68687500D01*
X43598521Y-68687500D01*
X43598518Y-68687500D01*
X43467771Y-68713507D01*
X43423000Y-68722413D01*
X43422999Y-68722413D01*
X43422996Y-68722414D01*
X43257662Y-68790899D01*
X43108869Y-68890319D01*
X43108862Y-68890324D01*
X42982324Y-69016862D01*
X42982319Y-69016869D01*
X42882899Y-69165662D01*
X42814414Y-69330996D01*
X42779500Y-69506518D01*
X37955292Y-69506518D01*
X37892189Y-69419664D01*
X37862526Y-69378836D01*
X37862523Y-69378833D01*
X37862521Y-69378830D01*
X37711329Y-69227638D01*
X37711326Y-69227636D01*
X37711324Y-69227634D01*
X37642126Y-69177358D01*
X37538326Y-69101943D01*
X37536747Y-69100976D01*
X37536272Y-69100451D01*
X37534324Y-69099036D01*
X37534621Y-69098626D01*
X37489117Y-69048328D01*
X37477511Y-68978286D01*
X37505616Y-68913089D01*
X37534163Y-68888357D01*
X37534061Y-68888217D01*
X37535704Y-68887022D01*
X37536771Y-68886099D01*
X37538076Y-68885299D01*
X37590487Y-68847218D01*
X37590487Y-68847216D01*
X36951268Y-68207997D01*
X37019313Y-68189765D01*
X37133327Y-68123939D01*
X37226419Y-68030847D01*
X37292245Y-67916833D01*
X37310477Y-67848788D01*
X37949696Y-68488007D01*
X37949698Y-68488007D01*
X37987783Y-68435590D01*
X38084826Y-68245132D01*
X38084829Y-68245126D01*
X38150879Y-68041843D01*
X38184320Y-67830713D01*
X38184320Y-67616966D01*
X38150879Y-67405836D01*
X38084829Y-67202553D01*
X38084826Y-67202547D01*
X37987784Y-67012091D01*
X37987783Y-67012089D01*
X37949698Y-66959671D01*
X37310477Y-67598891D01*
X37292245Y-67530847D01*
X37226419Y-67416833D01*
X37133327Y-67323741D01*
X37019313Y-67257915D01*
X36951267Y-67239681D01*
X37590488Y-66600461D01*
X37590487Y-66600460D01*
X37538070Y-66562376D01*
X37536748Y-66561566D01*
X37536350Y-66561126D01*
X37534062Y-66559464D01*
X37534199Y-66559275D01*
X37532196Y-66558640D01*
X37511193Y-66533319D01*
X37489117Y-66508918D01*
X37488658Y-66506152D01*
X37486870Y-66503996D01*
X37482891Y-66471346D01*
X37480766Y-66458518D01*
X45827500Y-66458518D01*
X45827500Y-66637481D01*
X45837476Y-66687634D01*
X45862413Y-66813000D01*
X45930898Y-66978336D01*
X46030322Y-67127135D01*
X46156865Y-67253678D01*
X46305664Y-67353102D01*
X46471000Y-67421587D01*
X46646521Y-67456500D01*
X46646522Y-67456500D01*
X46825478Y-67456500D01*
X46825479Y-67456500D01*
X47001000Y-67421587D01*
X47166336Y-67353102D01*
X47315135Y-67253678D01*
X47441678Y-67127135D01*
X47541102Y-66978336D01*
X47545997Y-66966518D01*
X50907500Y-66966518D01*
X50907500Y-67145481D01*
X50923087Y-67223840D01*
X50942413Y-67321000D01*
X51010898Y-67486336D01*
X51110322Y-67635135D01*
X51236865Y-67761678D01*
X51385664Y-67861102D01*
X51551000Y-67929587D01*
X51726521Y-67964500D01*
X51726522Y-67964500D01*
X51905478Y-67964500D01*
X51905479Y-67964500D01*
X52081000Y-67929587D01*
X52246336Y-67861102D01*
X52301466Y-67824265D01*
X52369216Y-67803051D01*
X52437683Y-67821834D01*
X52485127Y-67874651D01*
X52487872Y-67880807D01*
X52534898Y-67994336D01*
X52634322Y-68143135D01*
X52760865Y-68269678D01*
X52909664Y-68369102D01*
X53075000Y-68437587D01*
X53250521Y-68472500D01*
X53250522Y-68472500D01*
X53429478Y-68472500D01*
X53429479Y-68472500D01*
X53605000Y-68437587D01*
X53770336Y-68369102D01*
X53919135Y-68269678D01*
X54045678Y-68143135D01*
X54145102Y-67994336D01*
X54213587Y-67829000D01*
X54248500Y-67653479D01*
X54248500Y-67474521D01*
X54213587Y-67299000D01*
X54145102Y-67133664D01*
X54045678Y-66984865D01*
X53919135Y-66858322D01*
X53770336Y-66758898D01*
X53653429Y-66710473D01*
X53605003Y-66690414D01*
X53605001Y-66690413D01*
X53605000Y-66690413D01*
X53516645Y-66672838D01*
X53429481Y-66655500D01*
X53429479Y-66655500D01*
X53250521Y-66655500D01*
X53250518Y-66655500D01*
X53119771Y-66681507D01*
X53075000Y-66690413D01*
X53074999Y-66690413D01*
X53074996Y-66690414D01*
X52909663Y-66758898D01*
X52854535Y-66795734D01*
X52786782Y-66816948D01*
X52718315Y-66798165D01*
X52670873Y-66745347D01*
X52668125Y-66739187D01*
X52621102Y-66625664D01*
X52521678Y-66476865D01*
X52395135Y-66350322D01*
X52246336Y-66250898D01*
X52129429Y-66202473D01*
X52081003Y-66182414D01*
X52081001Y-66182413D01*
X52081000Y-66182413D01*
X51992645Y-66164838D01*
X51905481Y-66147500D01*
X51905479Y-66147500D01*
X51726521Y-66147500D01*
X51726518Y-66147500D01*
X51595771Y-66173507D01*
X51551000Y-66182413D01*
X51550999Y-66182413D01*
X51550996Y-66182414D01*
X51385662Y-66250899D01*
X51236869Y-66350319D01*
X51236862Y-66350324D01*
X51110324Y-66476862D01*
X51110319Y-66476869D01*
X51010899Y-66625662D01*
X50942414Y-66790996D01*
X50942413Y-66790999D01*
X50942413Y-66791000D01*
X50940988Y-66798165D01*
X50907500Y-66966518D01*
X47545997Y-66966518D01*
X47568531Y-66912119D01*
X47568533Y-66912112D01*
X47609587Y-66813000D01*
X47644500Y-66637479D01*
X47644500Y-66458521D01*
X47609587Y-66283000D01*
X47541102Y-66117664D01*
X47441678Y-65968865D01*
X47315135Y-65842322D01*
X47166336Y-65742898D01*
X47049429Y-65694473D01*
X47001003Y-65674414D01*
X47001001Y-65674413D01*
X47001000Y-65674413D01*
X46912645Y-65656838D01*
X46825481Y-65639500D01*
X46825479Y-65639500D01*
X46646521Y-65639500D01*
X46646518Y-65639500D01*
X46515771Y-65665507D01*
X46471000Y-65674413D01*
X46470999Y-65674413D01*
X46470996Y-65674414D01*
X46305662Y-65742899D01*
X46156869Y-65842319D01*
X46156862Y-65842324D01*
X46030324Y-65968862D01*
X46030319Y-65968869D01*
X45930899Y-66117662D01*
X45862414Y-66282996D01*
X45827500Y-66458518D01*
X37480766Y-66458518D01*
X37477511Y-66438876D01*
X37478620Y-66436301D01*
X37478282Y-66433521D01*
X37492585Y-66403906D01*
X37505615Y-66373679D01*
X37508313Y-66371341D01*
X37509159Y-66369590D01*
X37534356Y-66348689D01*
X37534324Y-66348644D01*
X37535026Y-66348133D01*
X37536762Y-66346694D01*
X37538315Y-66345740D01*
X37538329Y-66345734D01*
X37711324Y-66220046D01*
X37862526Y-66068844D01*
X37988214Y-65895849D01*
X38085292Y-65705323D01*
X38151369Y-65501956D01*
X38184820Y-65290756D01*
X38184820Y-65076924D01*
X38151369Y-64865724D01*
X38085292Y-64662357D01*
X37988214Y-64471831D01*
X37862526Y-64298836D01*
X37862523Y-64298833D01*
X37862521Y-64298830D01*
X37711329Y-64147638D01*
X37711326Y-64147636D01*
X37711324Y-64147634D01*
X37538329Y-64021946D01*
X37538327Y-64021945D01*
X37537240Y-64021279D01*
X37536911Y-64020915D01*
X37534324Y-64019036D01*
X37534422Y-64018901D01*
X37532678Y-64018348D01*
X37511671Y-63993023D01*
X37489603Y-63968636D01*
X37489143Y-63965865D01*
X37487351Y-63963704D01*
X37483370Y-63931046D01*
X37481293Y-63918518D01*
X57511500Y-63918518D01*
X57511500Y-63918521D01*
X57511500Y-64097479D01*
X57546413Y-64273000D01*
X57614898Y-64438336D01*
X57714322Y-64587135D01*
X57840865Y-64713678D01*
X57989664Y-64813102D01*
X58155000Y-64881587D01*
X58330521Y-64916500D01*
X58330522Y-64916500D01*
X58509478Y-64916500D01*
X58509479Y-64916500D01*
X58685000Y-64881587D01*
X58850336Y-64813102D01*
X58999135Y-64713678D01*
X59125678Y-64587135D01*
X59225102Y-64438336D01*
X59293587Y-64273000D01*
X59328500Y-64097479D01*
X59328500Y-63918521D01*
X59293587Y-63743000D01*
X59225102Y-63577664D01*
X59125678Y-63428865D01*
X58999135Y-63302322D01*
X58850336Y-63202898D01*
X58733429Y-63154473D01*
X58685003Y-63134414D01*
X58685001Y-63134413D01*
X58685000Y-63134413D01*
X58596645Y-63116838D01*
X58509481Y-63099500D01*
X58509479Y-63099500D01*
X58330521Y-63099500D01*
X58330518Y-63099500D01*
X58199771Y-63125507D01*
X58155000Y-63134413D01*
X58154999Y-63134413D01*
X58154996Y-63134414D01*
X57989662Y-63202899D01*
X57840869Y-63302319D01*
X57840862Y-63302324D01*
X57714324Y-63428862D01*
X57714319Y-63428869D01*
X57614899Y-63577662D01*
X57546414Y-63742996D01*
X57511500Y-63918518D01*
X37481293Y-63918518D01*
X37477990Y-63898596D01*
X37479100Y-63896017D01*
X37478761Y-63893229D01*
X37493067Y-63863606D01*
X37506086Y-63833395D01*
X37508789Y-63831052D01*
X37509637Y-63829298D01*
X37534403Y-63808753D01*
X37534324Y-63808644D01*
X37536031Y-63807403D01*
X37537240Y-63806401D01*
X37538317Y-63805739D01*
X37538329Y-63805734D01*
X37711324Y-63680046D01*
X37862526Y-63528844D01*
X37988214Y-63355849D01*
X38085292Y-63165323D01*
X38151369Y-62961956D01*
X38184820Y-62750756D01*
X38184820Y-62536924D01*
X38151369Y-62325724D01*
X38085292Y-62122357D01*
X37988214Y-61931831D01*
X37988211Y-61931827D01*
X37955292Y-61886518D01*
X48875500Y-61886518D01*
X48875500Y-61886521D01*
X48875500Y-62065479D01*
X48910413Y-62241000D01*
X48978898Y-62406336D01*
X49078322Y-62555135D01*
X49204865Y-62681678D01*
X49353664Y-62781102D01*
X49519000Y-62849587D01*
X49694521Y-62884500D01*
X49694522Y-62884500D01*
X49873478Y-62884500D01*
X49873479Y-62884500D01*
X50049000Y-62849587D01*
X50214336Y-62781102D01*
X50363135Y-62681678D01*
X50456905Y-62587908D01*
X50519217Y-62553882D01*
X50590032Y-62558947D01*
X50635095Y-62587908D01*
X50728865Y-62681678D01*
X50877664Y-62781102D01*
X51043000Y-62849587D01*
X51218521Y-62884500D01*
X51218522Y-62884500D01*
X51397478Y-62884500D01*
X51397479Y-62884500D01*
X51573000Y-62849587D01*
X51738336Y-62781102D01*
X51887135Y-62681678D01*
X52013678Y-62555135D01*
X52113102Y-62406336D01*
X52181587Y-62241000D01*
X52216500Y-62065479D01*
X52216500Y-61886521D01*
X52181587Y-61711000D01*
X52113102Y-61545664D01*
X52013678Y-61396865D01*
X51887135Y-61270322D01*
X51738336Y-61170898D01*
X51621429Y-61122473D01*
X51573003Y-61102414D01*
X51573001Y-61102413D01*
X51573000Y-61102413D01*
X51484645Y-61084838D01*
X51397481Y-61067500D01*
X51397479Y-61067500D01*
X51218521Y-61067500D01*
X51218518Y-61067500D01*
X51087771Y-61093507D01*
X51043000Y-61102413D01*
X51042999Y-61102413D01*
X51042996Y-61102414D01*
X50877662Y-61170899D01*
X50728869Y-61270319D01*
X50728862Y-61270324D01*
X50635095Y-61364092D01*
X50572783Y-61398118D01*
X50501968Y-61393053D01*
X50456905Y-61364092D01*
X50363137Y-61270324D01*
X50363135Y-61270322D01*
X50214336Y-61170898D01*
X50097429Y-61122473D01*
X50049003Y-61102414D01*
X50049001Y-61102413D01*
X50049000Y-61102413D01*
X49960645Y-61084838D01*
X49873481Y-61067500D01*
X49873479Y-61067500D01*
X49720334Y-61067500D01*
X49652213Y-61047498D01*
X49605720Y-60993842D01*
X49595616Y-60923568D01*
X49596755Y-60916919D01*
X49606147Y-60869700D01*
X49276001Y-60539554D01*
X49276000Y-60539554D01*
X48945852Y-60869700D01*
X49054901Y-60914870D01*
X49054900Y-60914870D01*
X49201340Y-60943999D01*
X49201344Y-60944000D01*
X49277875Y-60944000D01*
X49345996Y-60964002D01*
X49392489Y-61017658D01*
X49402593Y-61087932D01*
X49373099Y-61152512D01*
X49347877Y-61174765D01*
X49204868Y-61270319D01*
X49204862Y-61270324D01*
X49078324Y-61396862D01*
X49078319Y-61396869D01*
X48978899Y-61545662D01*
X48910414Y-61710996D01*
X48875500Y-61886518D01*
X37955292Y-61886518D01*
X37943493Y-61870278D01*
X37862526Y-61758836D01*
X37862523Y-61758833D01*
X37862521Y-61758830D01*
X37711329Y-61607638D01*
X37711326Y-61607636D01*
X37711324Y-61607634D01*
X37538329Y-61481946D01*
X37538327Y-61481945D01*
X37537240Y-61481279D01*
X37536911Y-61480915D01*
X37534324Y-61479036D01*
X37534718Y-61478492D01*
X37489603Y-61428636D01*
X37477990Y-61358596D01*
X37506086Y-61293395D01*
X37534450Y-61268818D01*
X37534324Y-61268644D01*
X37536350Y-61267171D01*
X37537240Y-61266401D01*
X37538317Y-61265739D01*
X37538329Y-61265734D01*
X37711324Y-61140046D01*
X37862526Y-60988844D01*
X37988214Y-60815849D01*
X38085292Y-60625323D01*
X38151369Y-60421956D01*
X38184820Y-60210756D01*
X38184820Y-59996924D01*
X38151369Y-59785724D01*
X38085292Y-59582357D01*
X37988214Y-59391831D01*
X37862526Y-59218836D01*
X37862523Y-59218833D01*
X37862521Y-59218830D01*
X37711329Y-59067638D01*
X37711326Y-59067636D01*
X37711324Y-59067634D01*
X37538329Y-58941946D01*
X37538327Y-58941945D01*
X37537240Y-58941279D01*
X37536911Y-58940915D01*
X37534324Y-58939036D01*
X37534718Y-58938492D01*
X37489603Y-58888636D01*
X37477990Y-58818596D01*
X37506086Y-58753395D01*
X37534450Y-58728818D01*
X37534324Y-58728644D01*
X37536350Y-58727171D01*
X37537240Y-58726401D01*
X37538317Y-58725739D01*
X37538329Y-58725734D01*
X37711324Y-58600046D01*
X37862526Y-58448844D01*
X37948495Y-58330518D01*
X44811500Y-58330518D01*
X44811500Y-58330521D01*
X44811500Y-58509479D01*
X44846413Y-58685000D01*
X44914898Y-58850336D01*
X45014322Y-58999135D01*
X45014324Y-58999137D01*
X45108092Y-59092905D01*
X45142118Y-59155217D01*
X45137053Y-59226032D01*
X45108092Y-59271095D01*
X45014324Y-59364862D01*
X45014319Y-59364869D01*
X44914899Y-59513662D01*
X44846414Y-59678996D01*
X44811500Y-59854518D01*
X44811500Y-60033481D01*
X44846414Y-60209003D01*
X44847140Y-60210756D01*
X44914898Y-60374336D01*
X45014322Y-60523135D01*
X45140865Y-60649678D01*
X45289664Y-60749102D01*
X45455000Y-60817587D01*
X45630521Y-60852500D01*
X45630522Y-60852500D01*
X45809478Y-60852500D01*
X45809479Y-60852500D01*
X45985000Y-60817587D01*
X46150336Y-60749102D01*
X46299135Y-60649678D01*
X46425678Y-60523135D01*
X46525102Y-60374336D01*
X46593587Y-60209000D01*
X46628500Y-60033479D01*
X46628500Y-59854521D01*
X46593587Y-59679000D01*
X46525102Y-59513664D01*
X46425678Y-59364865D01*
X46331908Y-59271095D01*
X46297882Y-59208783D01*
X46302947Y-59137968D01*
X46331908Y-59092905D01*
X46357179Y-59067634D01*
X46425678Y-58999135D01*
X46525102Y-58850336D01*
X46593587Y-58685000D01*
X46608239Y-58611340D01*
X48518000Y-58611340D01*
X48518000Y-58760659D01*
X48547129Y-58907101D01*
X48547130Y-58907102D01*
X48590904Y-59012781D01*
X48598493Y-59083371D01*
X48590904Y-59109219D01*
X48547130Y-59214897D01*
X48547129Y-59214898D01*
X48518000Y-59361340D01*
X48518000Y-59510659D01*
X48547129Y-59657101D01*
X48547130Y-59657102D01*
X48590904Y-59762781D01*
X48598493Y-59833371D01*
X48590904Y-59859219D01*
X48547130Y-59964897D01*
X48547129Y-59964898D01*
X48518000Y-60111340D01*
X48518000Y-60260659D01*
X48547131Y-60407108D01*
X48592297Y-60516146D01*
X48592298Y-60516147D01*
X49010128Y-60098318D01*
X49072440Y-60064292D01*
X49143255Y-60069357D01*
X49188319Y-60098318D01*
X49205290Y-60115289D01*
X49191224Y-60129355D01*
X49176000Y-60166109D01*
X49176000Y-60205891D01*
X49191224Y-60242645D01*
X49219355Y-60270776D01*
X49256109Y-60286000D01*
X49295891Y-60286000D01*
X49332645Y-60270776D01*
X49360776Y-60242645D01*
X49376000Y-60205891D01*
X49376000Y-60166109D01*
X49360776Y-60129355D01*
X49346710Y-60115289D01*
X49363681Y-60098318D01*
X49425993Y-60064293D01*
X49496809Y-60069357D01*
X49541873Y-60098318D01*
X49959700Y-60516146D01*
X50004870Y-60407101D01*
X50004871Y-60407098D01*
X50033999Y-60260662D01*
X50034000Y-60260655D01*
X50034000Y-60111344D01*
X50033999Y-60111340D01*
X50004870Y-59964898D01*
X50004869Y-59964897D01*
X49961096Y-59859219D01*
X49953507Y-59788629D01*
X49961096Y-59762781D01*
X50004869Y-59657102D01*
X50004870Y-59657101D01*
X50033999Y-59510659D01*
X50034000Y-59510655D01*
X50034000Y-59361344D01*
X50033999Y-59361340D01*
X50004870Y-59214898D01*
X50004869Y-59214897D01*
X49961096Y-59109219D01*
X49953507Y-59038629D01*
X49961096Y-59012781D01*
X50004869Y-58907102D01*
X50004870Y-58907101D01*
X50033999Y-58760659D01*
X50034000Y-58760655D01*
X50034000Y-58611344D01*
X50033999Y-58611340D01*
X50004870Y-58464900D01*
X50004868Y-58464892D01*
X49959701Y-58355852D01*
X49959700Y-58355851D01*
X49541871Y-58773681D01*
X49479559Y-58807707D01*
X49408744Y-58802642D01*
X49363680Y-58773681D01*
X49346710Y-58756710D01*
X49360776Y-58742645D01*
X49376000Y-58705891D01*
X49376000Y-58666109D01*
X49360776Y-58629355D01*
X49332645Y-58601224D01*
X49295891Y-58586000D01*
X49256109Y-58586000D01*
X49219355Y-58601224D01*
X49191224Y-58629355D01*
X49176000Y-58666109D01*
X49176000Y-58705891D01*
X49191224Y-58742645D01*
X49205289Y-58756710D01*
X49188317Y-58773682D01*
X49126005Y-58807707D01*
X49055189Y-58802641D01*
X49010126Y-58773681D01*
X48592297Y-58355851D01*
X48547131Y-58464893D01*
X48547129Y-58464898D01*
X48518000Y-58611340D01*
X46608239Y-58611340D01*
X46628500Y-58509479D01*
X46628500Y-58330521D01*
X46593587Y-58155000D01*
X46530335Y-58002297D01*
X48945851Y-58002297D01*
X48945851Y-58002298D01*
X49275999Y-58332446D01*
X49276000Y-58332446D01*
X49606147Y-58002298D01*
X49606146Y-58002297D01*
X49497108Y-57957131D01*
X49350659Y-57928000D01*
X49201340Y-57928000D01*
X49054898Y-57957129D01*
X49054893Y-57957131D01*
X48945851Y-58002297D01*
X46530335Y-58002297D01*
X46525102Y-57989664D01*
X46425678Y-57840865D01*
X46299135Y-57714322D01*
X46150336Y-57614898D01*
X46033429Y-57566473D01*
X45985003Y-57546414D01*
X45985001Y-57546413D01*
X45985000Y-57546413D01*
X45896645Y-57528838D01*
X45809481Y-57511500D01*
X45809479Y-57511500D01*
X45630521Y-57511500D01*
X45630518Y-57511500D01*
X45499771Y-57537507D01*
X45455000Y-57546413D01*
X45454999Y-57546413D01*
X45454996Y-57546414D01*
X45289662Y-57614899D01*
X45140869Y-57714319D01*
X45140862Y-57714324D01*
X45014324Y-57840862D01*
X45014319Y-57840869D01*
X44914899Y-57989662D01*
X44846414Y-58154996D01*
X44811500Y-58330518D01*
X37948495Y-58330518D01*
X37988214Y-58275849D01*
X38085292Y-58085323D01*
X38151369Y-57881956D01*
X38184820Y-57670756D01*
X38184820Y-57456924D01*
X38151369Y-57245724D01*
X38085292Y-57042357D01*
X37988214Y-56851831D01*
X37862526Y-56678836D01*
X37862523Y-56678833D01*
X37862521Y-56678830D01*
X37711329Y-56527638D01*
X37711326Y-56527636D01*
X37711324Y-56527634D01*
X37538329Y-56401946D01*
X37538327Y-56401945D01*
X37537240Y-56401279D01*
X37536911Y-56400915D01*
X37534324Y-56399036D01*
X37534718Y-56398492D01*
X37489603Y-56348636D01*
X37477990Y-56278596D01*
X37506086Y-56213395D01*
X37534450Y-56188818D01*
X37534324Y-56188644D01*
X37536350Y-56187171D01*
X37537240Y-56186401D01*
X37538317Y-56185739D01*
X37538329Y-56185734D01*
X37711324Y-56060046D01*
X37862526Y-55908844D01*
X37988214Y-55735849D01*
X38085292Y-55545323D01*
X38151369Y-55341956D01*
X38184820Y-55130756D01*
X38184820Y-54916924D01*
X38151369Y-54705724D01*
X38085292Y-54502357D01*
X37988214Y-54311831D01*
X37862526Y-54138836D01*
X37862523Y-54138833D01*
X37862521Y-54138830D01*
X37711329Y-53987638D01*
X37711326Y-53987636D01*
X37711324Y-53987634D01*
X37538329Y-53861946D01*
X37538327Y-53861945D01*
X37537240Y-53861279D01*
X37536911Y-53860915D01*
X37534324Y-53859036D01*
X37534718Y-53858492D01*
X37489603Y-53808636D01*
X37477990Y-53738596D01*
X37506086Y-53673395D01*
X37534450Y-53648818D01*
X37534324Y-53648644D01*
X37536350Y-53647171D01*
X37537240Y-53646401D01*
X37538317Y-53645739D01*
X37538329Y-53645734D01*
X37711324Y-53520046D01*
X37862526Y-53368844D01*
X37988214Y-53195849D01*
X38085292Y-53005323D01*
X38151369Y-52801956D01*
X38184820Y-52590756D01*
X38184820Y-52376924D01*
X38151369Y-52165724D01*
X38085292Y-51962357D01*
X37988214Y-51771831D01*
X37862526Y-51598836D01*
X37862523Y-51598833D01*
X37862521Y-51598830D01*
X37711329Y-51447638D01*
X37711326Y-51447636D01*
X37711324Y-51447634D01*
X37538329Y-51321946D01*
X37538327Y-51321945D01*
X37537240Y-51321279D01*
X37536911Y-51320915D01*
X37534324Y-51319036D01*
X37534718Y-51318492D01*
X37489603Y-51268636D01*
X37477990Y-51198596D01*
X37506086Y-51133395D01*
X37534450Y-51108818D01*
X37534324Y-51108644D01*
X37536350Y-51107171D01*
X37537240Y-51106401D01*
X37538317Y-51105739D01*
X37538329Y-51105734D01*
X37711324Y-50980046D01*
X37862526Y-50828844D01*
X37988214Y-50655849D01*
X38085292Y-50465323D01*
X38151369Y-50261956D01*
X38184820Y-50050756D01*
X38184820Y-49836924D01*
X38151369Y-49625724D01*
X38085292Y-49422357D01*
X37988214Y-49231831D01*
X37862526Y-49058836D01*
X37862523Y-49058833D01*
X37862521Y-49058830D01*
X37711329Y-48907638D01*
X37711326Y-48907636D01*
X37711324Y-48907634D01*
X37538329Y-48781946D01*
X37538327Y-48781945D01*
X37537240Y-48781279D01*
X37536911Y-48780915D01*
X37534324Y-48779036D01*
X37534718Y-48778492D01*
X37489603Y-48728636D01*
X37477990Y-48658596D01*
X37506086Y-48593395D01*
X37534450Y-48568818D01*
X37534324Y-48568644D01*
X37536350Y-48567171D01*
X37537240Y-48566401D01*
X37538317Y-48565739D01*
X37538329Y-48565734D01*
X37711324Y-48440046D01*
X37862526Y-48288844D01*
X37988214Y-48115849D01*
X38085292Y-47925323D01*
X38151369Y-47721956D01*
X38184820Y-47510756D01*
X38184820Y-47296924D01*
X38151369Y-47085724D01*
X38085292Y-46882357D01*
X37988214Y-46691831D01*
X37862526Y-46518836D01*
X37862523Y-46518833D01*
X37862521Y-46518830D01*
X37711329Y-46367638D01*
X37711326Y-46367636D01*
X37711324Y-46367634D01*
X37538329Y-46241946D01*
X37538327Y-46241945D01*
X37537240Y-46241279D01*
X37536911Y-46240915D01*
X37534324Y-46239036D01*
X37534718Y-46238492D01*
X37489603Y-46188636D01*
X37477990Y-46118596D01*
X37506086Y-46053395D01*
X37534450Y-46028818D01*
X37534324Y-46028644D01*
X37536350Y-46027171D01*
X37537240Y-46026401D01*
X37538317Y-46025739D01*
X37538329Y-46025734D01*
X37711324Y-45900046D01*
X37862526Y-45748844D01*
X37988214Y-45575849D01*
X38085292Y-45385323D01*
X38151369Y-45181956D01*
X38184820Y-44970756D01*
X38184820Y-44756924D01*
X38151369Y-44545724D01*
X38085292Y-44342357D01*
X37988214Y-44151831D01*
X37862526Y-43978836D01*
X37862523Y-43978833D01*
X37862521Y-43978830D01*
X37711329Y-43827638D01*
X37711326Y-43827636D01*
X37711324Y-43827634D01*
X37538329Y-43701946D01*
X37538327Y-43701945D01*
X37537240Y-43701279D01*
X37536911Y-43700915D01*
X37534324Y-43699036D01*
X37534718Y-43698492D01*
X37489603Y-43648636D01*
X37477990Y-43578596D01*
X37506086Y-43513395D01*
X37534450Y-43488818D01*
X37534324Y-43488644D01*
X37536350Y-43487171D01*
X37537240Y-43486401D01*
X37538317Y-43485739D01*
X37538329Y-43485734D01*
X37711324Y-43360046D01*
X37862526Y-43208844D01*
X37988214Y-43035849D01*
X38085292Y-42845323D01*
X38151369Y-42641956D01*
X38184820Y-42430756D01*
X38184820Y-42216924D01*
X38151369Y-42005724D01*
X38085292Y-41802357D01*
X37988214Y-41611831D01*
X37862526Y-41438836D01*
X37862523Y-41438833D01*
X37862521Y-41438830D01*
X37711329Y-41287638D01*
X37711326Y-41287636D01*
X37711324Y-41287634D01*
X37538329Y-41161946D01*
X37538327Y-41161945D01*
X37537240Y-41161279D01*
X37536911Y-41160915D01*
X37534324Y-41159036D01*
X37534718Y-41158492D01*
X37489603Y-41108636D01*
X37477990Y-41038596D01*
X37506086Y-40973395D01*
X37534450Y-40948818D01*
X37534324Y-40948644D01*
X37536350Y-40947171D01*
X37537240Y-40946401D01*
X37538317Y-40945739D01*
X37538329Y-40945734D01*
X37711324Y-40820046D01*
X37862526Y-40668844D01*
X37988214Y-40495849D01*
X38085292Y-40305323D01*
X38151369Y-40101956D01*
X38184820Y-39890756D01*
X38184820Y-39676924D01*
X38151369Y-39465724D01*
X38085292Y-39262357D01*
X37988214Y-39071831D01*
X37862526Y-38898836D01*
X37862523Y-38898833D01*
X37862521Y-38898830D01*
X37711329Y-38747638D01*
X37711326Y-38747636D01*
X37711324Y-38747634D01*
X37538329Y-38621946D01*
X37538327Y-38621945D01*
X37537240Y-38621279D01*
X37536911Y-38620915D01*
X37534324Y-38619036D01*
X37534718Y-38618492D01*
X37489603Y-38568636D01*
X37477990Y-38498596D01*
X37506086Y-38433395D01*
X37534450Y-38408818D01*
X37534324Y-38408644D01*
X37536350Y-38407171D01*
X37537240Y-38406401D01*
X37538317Y-38405739D01*
X37538329Y-38405734D01*
X37711324Y-38280046D01*
X37862526Y-38128844D01*
X37988214Y-37955849D01*
X38085292Y-37765323D01*
X38151369Y-37561956D01*
X38184820Y-37350756D01*
X38184820Y-37136924D01*
X38151369Y-36925724D01*
X38085292Y-36722357D01*
X37988214Y-36531831D01*
X37862526Y-36358836D01*
X37862523Y-36358833D01*
X37862521Y-36358830D01*
X37759549Y-36255858D01*
X37725523Y-36193546D01*
X37730588Y-36122731D01*
X37773135Y-36065895D01*
X37804604Y-36048711D01*
X37922524Y-36004729D01*
X37923119Y-36004284D01*
X38039581Y-35917101D01*
X38127207Y-35800047D01*
X38127207Y-35800046D01*
X38127209Y-35800044D01*
X38178309Y-35663041D01*
X38184820Y-35602478D01*
X38184820Y-33805202D01*
X38178321Y-33744746D01*
X38178310Y-33744643D01*
X38178308Y-33744635D01*
X38127298Y-33607875D01*
X38127209Y-33607636D01*
X38127208Y-33607634D01*
X38127207Y-33607632D01*
X38039581Y-33490578D01*
X37922527Y-33402952D01*
X37922522Y-33402950D01*
X37785524Y-33351851D01*
X37785516Y-33351849D01*
X37724969Y-33345340D01*
X37724958Y-33345340D01*
X35927682Y-33345340D01*
X35927670Y-33345340D01*
X35867123Y-33351849D01*
X35867115Y-33351851D01*
X35730117Y-33402950D01*
X35730112Y-33402952D01*
X35613058Y-33490578D01*
X35525432Y-33607632D01*
X35525430Y-33607637D01*
X35474331Y-33744635D01*
X35474329Y-33744643D01*
X35467820Y-33805190D01*
X35052500Y-33805190D01*
X35052500Y-32638500D01*
X35072502Y-32570379D01*
X35126158Y-32523886D01*
X35178500Y-32512500D01*
X38609000Y-32512500D01*
X38677121Y-32532502D01*
G37*
%TD.AperFunction*%
%TD*%
M02*
